<?xml version="1.0" encoding="utf-8"?>
<!-- Generator: Adobe Illustrator 15.1.0, SVG Export Plug-In . SVG Version: 6.00 Build 0)  -->
<!DOCTYPE svg PUBLIC "-//W3C//DTD SVG 1.1//EN" "http://www.w3.org/Graphics/SVG/1.1/DTD/svg11.dtd">
<svg version="1.1" id="Layer_1" xmlns="http://www.w3.org/2000/svg" xmlns:xlink="http://www.w3.org/1999/xlink" x="0px" y="0px"
	 width="841.89px" height="595.28px" viewBox="0 0 841.89 595.28" enable-background="new 0 0 841.89 595.28" xml:space="preserve">
<defs>
	<style type="text/css">
      @import url('https://fonts.googleapis.com/css?family=Oxygen');
      text {
        font-family: "Oxygen";
      }
     </style>
</defs>
<circle fill="none" cx="428.064" cy="276.655" r="64.781"/>

<text transform="matrix(1 0 0 1 378.1611 301.7109)" fill="#FFFFFF" font-family="Oxygen" font-size="16.6086">JIM &amp; JACOB</text>

<text transform="matrix(0.8223 0.5691 -0.5691 0.8223 387.5986 327.4395)"><tspan x="0" y="0" fill="#FFFFFF" font-family="'OratorStd'" font-size="14.7632">s</tspan><tspan x="9.79" y="-0.07" fill="#FFFFFF" font-family="'OratorStd'" font-size="14.7632" rotate="-8.657">t</tspan><tspan x="19.465" y="-1.615" fill="#FFFFFF" font-family="'OratorStd'" font-size="14.7632" rotate="-17.367">o</tspan><tspan x="28.814" y="-4.616" fill="#FFFFFF" font-family="'OratorStd'" font-size="14.7632" rotate="-26.09">c</tspan><tspan x="37.469" y="-8.999" fill="#FFFFFF" font-family="'OratorStd'" font-size="14.7632" rotate="-33.759">k</tspan><tspan x="45.568" y="-14.594" fill="#FFFFFF" font-family="'OratorStd'" font-size="14.7632" rotate="-43.216">h</tspan><tspan x="52.658" y="-21.352" fill="#FFFFFF" font-family="'OratorStd'" font-size="14.7632" rotate="-51.919">o</tspan><tspan x="58.645" y="-29.11" fill="#FFFFFF" font-family="'OratorStd'" font-size="14.7632" rotate="-60.63">l</tspan><tspan x="63.386" y="-37.679" fill="#FFFFFF" font-family="'OratorStd'" font-size="14.7632" rotate="-69.288">m</tspan></text>
<path fill="none" d="M477.729,277.319c0-27.425-22.239-49.659-49.667-49.659s-49.661,22.234-49.661,49.659
	c0,27.433,22.233,49.667,49.661,49.667S477.729,304.752,477.729,277.319z"/>
<text transform="matrix(0.8823 0.4707 -0.4707 0.8823 401.9663 319.7002)"><tspan x="0" y="0" fill="#FFFFFF" font-family="'OratorStd'" font-size="10.4099">E</tspan><tspan x="6.877" y="-0.044" fill="#FFFFFF" font-family="'OratorStd'" font-size="10.4099" rotate="-7.969">S</tspan><tspan x="13.702" y="-1.045" fill="#FFFFFF" font-family="'OratorStd'" font-size="10.4099" rotate="-15.977">T</tspan><tspan x="20.323" y="-2.989" fill="#FFFFFF" font-family="'OratorStd'" font-size="10.4099" rotate="-23.933">.</tspan><tspan x="26.6" y="-5.822" fill="#FFFFFF" font-family="'OratorStd'" font-size="10.4099" rotate="-31.753">2</tspan><tspan x="32.405" y="-9.464" fill="#FFFFFF" font-family="'OratorStd'" font-size="10.4099" rotate="-39.644">0</tspan><tspan x="37.693" y="-13.905" fill="#FFFFFF" font-family="'OratorStd'" font-size="10.4099" rotate="-47.659">1</tspan><tspan x="42.297" y="-19.022" fill="#FFFFFF" font-family="'OratorStd'" font-size="10.4099" rotate="-55.636">5</tspan></text>
<g>
	<g>
		<g>
			<path fill-rule="evenodd" clip-rule="evenodd" fill="#FFFFFF" d="M504.311,225.764c-0.27,0.184-0.316,0.58-0.627,0.652
				c-0.144,0.371-0.184,0.813-0.064,1.212c0.377-0.16,0.715,0.211,0.955,0.5c-0.053,0.365,0.004,0.79-0.292,1.024
				c-0.052-0.238-0.163-0.381-0.285-0.507c-0.158,0.15,0.044,0.49-0.021,0.693c-0.111,0.318-0.354,0.569-0.256,0.998
				c-0.301,0.354-0.351,0.726-0.599,1.084c-0.903,1.298-2.808,1.846-4.05,2.95c-0.222,0.048-0.296,0.176-0.499,0.237
				c0.106,1.386,0.308,2.153,0.727,3.366c0.761-0.155,1.873-0.547,2.14-0.18c0.184,0.146,0.175-0.259,0.27-0.154
				c2.166-0.483,3.707-0.024,4.674,1.191c-0.043,0.175-0.155,0.045-0.277,0.146c0.203,0.144,0.35,0.36,0.729,0.281
				c0.069,0.141,0.225,0.454,0.17,0.573c-0.428,0.308-0.432,0.963-0.48,1.415c0.816,0.417,1.609,0.838,2.692,0.841
				c0.616-0.475,1.234-0.572,1.612-1.202c0.656-0.128,0.721-0.697,0.965-1.137c-0.137-0.656,0.527-0.966,1.059-1.114
				c0.271-0.217,0.413-0.533,0.812-0.652c0.347-0.573,0.438-1.332,0.668-1.989c-0.301-0.25-0.055-0.425-0.076-0.792
				c0.189-0.18,0.317-0.409,0.509-0.586c0.132-0.719,0.417-1.463,0.306-2.246c-0.056-0.371-0.263-0.778-0.373-1.119
				c-0.52-0.472-0.623-1.275-1.275-1.455c-0.234-0.63-0.598-0.981-0.833-1.633c-0.14-0.118-0.362-0.09-0.4-0.375
				c-1.165-0.178-1.771-1.287-2.691-1.865c-0.356,0.064-0.54-0.157-0.987-0.04c-0.156-0.078-0.365-0.059-0.475-0.225
				c-0.274,0.117-0.328,0.145-0.664,0.192c-0.541-0.242-1.144-0.136-1.691-0.158c-0.109-0.141-0.348-0.209-0.629-0.213l-0.047,0.016
				C504.798,225.728,504.517,225.626,504.311,225.764z M507.102,236.631c0.02,0.137-0.221,0.104-0.271,0.198
				c-0.424-0.144-0.837-0.302-1.059-0.721C506.326,236.125,506.77,236.299,507.102,236.631z M506.029,231.795
				c-0.377,0.26-0.924,0.563-1.443,0.519c0.1-0.628,0.619-1.021,1.08-1.445C505.924,231.021,506.113,231.45,506.029,231.795z"/>
		</g>
		<g>
			<path fill-rule="evenodd" clip-rule="evenodd" fill="#FFFFFF" d="M496.545,221.943c0.746-0.216,1.258-1.071,1.895-1.337
				c1.495-0.626,3.578,0.243,4.957,0.54c1.684,0.354,2.987,0.816,4.639,1.294c0.442,0.092,0.188,0.516,0.609,0.641
				c2.691,0.695,5.14,1.739,7.964,2.97c0.56,0.24,2.042,1.231,2.507,1.059c0.485-0.182,0.792-1.015,0.492-1.731
				c-0.252-0.616-1.971-0.99-2.566-1.246c-2.582-1.142-5.583-2.222-7.807-3.087c-0.316,0.009-0.619,0.138-0.925,0.095
				c-1.47-0.212-3.185-0.975-4.788-1.348c-1.676-0.394-3.333-0.501-4.822-0.941c-0.162-1.339-1.301-2.715-2.695-3.396
				c-1.4-0.688-3.021-0.669-4.156,0.589c-0.512,0.561-0.653,1.272-0.493,2.156l0.161,0.486
				C492.662,220.51,494.206,222.619,496.545,221.943z M519.042,226.619c-0.685-0.065-1.54-0.709-1.168-1.485
				C518.904,224.903,519.506,225.795,519.042,226.619z"/>
		</g>
		<g>
			<path fill-rule="evenodd" clip-rule="evenodd" fill="#FFFFFF" d="M524.949,274.977c0.087,0.188,0.048,0.499,0.174,0.645
				c-0.047,2.858,0.182,5.983,0.211,8.916c0.064,0.059,0.211,0.049,0.221,0.157c0.275-0.14,0.891,0.005,0.871,0.424
				c-0.016,0.335-0.518,0.604-0.842,0.335c-0.145,0.073-0.279,0.159-0.366,0.308c-0.024-0.088-0.134,0.033-0.232-0.022
				c-0.147-0.032,0.032-0.343-0.099-0.387c-0.542-0.013-1.112-0.009-1.643-0.089c-0.067,0.285,0.025,0.551-0.078,0.764l-0.233-0.023
				c-0.135-0.063-0.057-0.302-0.052-0.476l-0.27-0.023c-0.117,1.425-0.578,2.468-1.891,2.404c0.027,1.047-0.542,1.388-1.117,1.914
				c-0.27,0.252-0.521,0.665-0.918,0.478c-0.101-0.34,0.094-0.778,0.088-1.282c-1.422-0.216-3.076-0.397-4.652-0.679
				c-0.739-0.137-1.596-0.328-2.292-0.318c-0.648,0.012-1.36,0.517-2.057,0.391c-0.134-0.613,0.106-1.667,0.212-2.562
				c0.253-2.083,0.332-4.6,0.548-6.613c0.778,0.031,1.656,0.22,2.405,0.372c0.061,0.115,0.066,0.27,0.047,0.448
				c2.014,0.2,4.498,0.261,6.569,0.376c0.036-0.416,0-0.697,0.141-0.989c0.479-0.056,0.948,0.216,1.432,0.342
				c0.311,0.481,0.173,1.219,0.084,1.737c0.116,0.101,0.319-0.056,0.434,0.058c0.206,0.099,0.3,0.299,0.266,0.607
				c0.562,0.51,0.668,1.415,0.763,2.316c0.384,0.144,0.153-0.431,0.378-0.469c0.323,0.007,0.151,0.432,0.213,0.654
				c0.497,0.022,1.021,0.074,1.647,0.047c0.018-3.537-0.097-7.376-0.389-10.977c0.258-0.083,0.344-0.398,0.492-0.42
				c0.28-0.04,0.444,0.204,0.613,0.221c0.775,0.085,0.703-0.767,1.28-0.934c0.831-0.243,0.914,0.651,1.175,1.154
				c0.084,0.159-0.022,0.236-0.059,0.422c-0.1,0.569-0.061,1.24-0.822,1.164c-0.496-0.051-0.587-0.638-1.115-0.682
				C525.529,274.642,525.509,275.262,524.949,274.977z"/>
		</g>
		<g>
			<path fill-rule="evenodd" clip-rule="evenodd" fill="#FFFFFF" d="M519.482,296.437c-0.357-0.345-0.844-0.587-0.984-0.908
				c-0.332-0.737-0.166-1.521-0.602-2.091c-0.6-0.789-2.314-0.917-3.19-0.021c-0.645,0.657-0.507,1.825-1.03,2.656
				c-1.538,0.497-3.395,0.575-4.636,1.263c-1.184,0.663-2.069,1.932-2.681,3.47c-0.613,1.543-0.96,3.359-1.014,5.158
				c-0.055,1.913,0.119,3.946,0.615,5.764c0.498,1.812,1.335,3.414,2.689,4.367c1.264,0.895,2.732,1.104,4.204,1.848
				c0.366,1.494,0.103,3.396,1.989,3.857l0.262,0.051c0.672-0.078,1.28-0.188,1.643-0.636c0.518-0.642,0.439-1.599,0.841-2.345
				c0.257-0.469,1.042-0.743,1.477-1.174c2.308-2.293,3.328-5.654,3.796-9.782l0.034-0.931
				C522.894,302.596,521.764,298.639,519.482,296.437z M517.187,295.168c-0.617-0.018-1.128,0.04-1.68,0.166
				c-0.746-0.943-0.087-2.072,0.947-1.968C517.195,293.443,517.578,294.375,517.187,295.168z M516.137,320.722
				c-0.638,0.761-1.38,0.459-1.754-0.114c-0.379-0.573-0.398-1.41,0.421-1.797c0.344,0.168,0.808,0.254,1.294,0.319
				C516.232,319.572,516.316,320.054,516.137,320.722z"/>
		</g>
		<g>
			<path fill-rule="evenodd" clip-rule="evenodd" fill="#FFFFFF" d="M525.021,301.67l0.094-1.082
				c0.426-1.651,1.034-3.023,2.253-3.958c0.254-0.194,0.606-0.381,0.953-0.576c0.333-0.184,0.632-0.462,0.915-0.627
				c0.197-0.115,0.889-0.479,1.055-0.479c0.153,0,0.345,0.189,0.443,0.242c0.69,0.36,1.33,0.817,1.798,1.185
				c0.64,0.502,1.38,1.241,1.741,2.011c0.328,0.693,0.512,1.694,0.505,2.629c-0.01,1.63-0.486,3.447-1.275,4.547
				c-0.485,0.684-1.425,1.434-2.14,1.66c-0.256,0.082-0.566,0.055-0.852,0.158c-0.635,0.236-0.938,0.982-1.789,1.115
				c-0.374-0.225-0.496-0.645-0.756-0.992c-0.443-0.601-1.118-0.98-1.594-1.523C525.541,305.036,525.011,303.357,525.021,301.67z"/>
		</g>
		<g>
			<path fill-rule="evenodd" clip-rule="evenodd" fill="#FFFFFF" d="M532.915,277.553c0.206,0.06,0.42-0.016,0.604,0.013
				c0.044,0.005,0.07,0.041,0.105,0.056c0.098,0.034,0.188,0.024,0.273,0.043c0.23,0.18,0.595,0.213,0.825,0.398
				c0.055,0.007,0.088-0.011,0.132-0.017c0.006,0.062,0.045,0.083,0.062,0.134c0.191,0.023,0.238,0.213,0.439,0.23
				c0.025,0.161,0.234,0.112,0.256,0.274c0.101,0.006,0.095,0.065,0.168,0.133c0.074,0.069,0.129,0.156,0.208,0.234
				c0.056,0.058,0.126,0.083,0.166,0.132c0.065,0.084,0.079,0.217,0.188,0.25c0.046,0.126,0.129,0.206,0.164,0.339
				c0.068-0.017,0.055,0.057,0.104,0.061c0.041,0.18,0.135,0.299,0.225,0.428c0.015,0.185,0.113,0.28,0.174,0.415
				c0.035,0.036,0.098,0.007,0.141,0.004c0.047,0,0.014,0.09,0.076,0.075c0.312,0.025,0.632,0.041,0.917,0.098
				c0.034,0.111,0.169,0.111,0.254,0.167c0.093,0.152,0.259,0.22,0.376,0.341c0.025,0.13,0.125,0.252,0.168,0.412
				c0.01,0.032,0.01,0.084,0.023,0.118c0.025,0.076,0.085,0.135,0.096,0.213c0.018,0.122-0.019,0.304,0,0.377
				c0.014,0.058,0.064,0.092,0.082,0.153c0.025,0.076,0.069,0.329,0.062,0.393c-0.008,0.076-0.055,0.147-0.076,0.223
				c-0.079-0.054-0.138,0.005-0.217-0.025c-0.09-0.037-0.132-0.181-0.237-0.191c0.038-0.091-0.026-0.16-0.083-0.198
				c-0.072-0.007-0.003,0.147-0.108,0.132c-0.077-0.208-0.206-0.363-0.327-0.521c-0.008-0.052,0.021-0.058,0.016-0.104
				c-0.162-0.07-0.23-0.21-0.459-0.181c-0.012-0.096-0.054-0.162-0.066-0.255c-0.08,0.017-0.131,0.066-0.172,0.126
				c0.061,0.133,0.062,0.241,0.099,0.42c0.031,0.146,0.121,0.25,0.07,0.492c0.159,0.173,0.075,0.555,0.097,0.925
				c0.006,0.091,0.04,0.185,0.039,0.269c-0.002,0.261-0.049,0.605-0.104,0.872c-0.026,0.135-0.046,0.291-0.075,0.396
				c-0.018,0.054-0.064,0.082-0.088,0.143c-0.091,0.221-0.094,0.498-0.225,0.621c0.004,0.074,0.004,0.078-0.012,0.148
				c-0.064,0.071-0.111,0.166-0.127,0.3c-0.049-0.022-0.041,0.031-0.078,0.024c-0.049,0.15-0.15,0.223-0.188,0.384
				c-0.018,0.022-0.059,0.019-0.08,0.039c-0.141,0.297-0.35,0.507-0.521,0.768c-0.132,0.037-0.148,0.232-0.305,0.236
				c-0.113,0.219-0.369,0.377-0.567,0.52c-0.143,0.097-0.292,0.187-0.441,0.249c-0.027,0.021-0.038,0.068-0.06,0.095
				c-0.334,0.023-0.496,0.37-0.862,0.29c-0.101,0.125-0.319,0.097-0.511,0.147c-0.136,0.038-0.28,0.078-0.407,0.044
				c-0.522,0.119-1.262-0.061-1.813-0.17c-0.029-0.028-0.061-0.054-0.095-0.079c-0.307-0.001-0.467-0.23-0.738-0.303
				c-0.047-0.133-0.255-0.168-0.364-0.205c0.035-0.112-0.093-0.101-0.109-0.096c0.009-0.02,0.043-0.007,0.031-0.051
				c-0.198-0.117-0.396-0.238-0.499-0.438c-0.118-0.011-0.128-0.114-0.235-0.134c0-0.036-0.039-0.041-0.016-0.096
				c-0.065-0.023-0.082-0.085-0.145-0.111c-0.045-0.177-0.176-0.274-0.277-0.396c-0.039-0.176-0.195-0.247-0.248-0.406l-0.127-0.012
				c0.021-0.014,0.062-0.058,0.032-0.093c-0.087-0.077-0.204-0.246-0.319-0.218c0.085-0.162-0.186-0.269-0.127-0.488
				c-0.068-0.025-0.098-0.086-0.16-0.119c-0.02-0.205-0.132-0.331-0.109-0.577c-0.072-0.065-0.057-0.234-0.051-0.397
				c0.01,0.01,0.061,0.065,0.063,0.004c-0.151-0.476-0.204-0.989-0.241-1.551l0.043-0.915c0.047-0.625,0.215-1.128,0.396-1.578
				c0.033-0.087,0.043-0.187,0.07-0.242c0.028-0.055,0.102-0.094,0.121-0.144c0.01-0.032-0.014-0.073,0-0.094
				c0.029-0.059,0.098-0.125,0.134-0.188c0.042-0.068,0.058-0.151,0.095-0.214c0.01-0.018,0.061-0.04,0.078-0.066
				c0.058-0.079,0.112-0.191,0.172-0.269c0.068-0.085,0.147-0.135,0.199-0.243c0.02-0.051-0.024-0.106-0.01-0.108
				c0.039-0.011,0.014,0.047,0.064,0.027c0.17-0.132,0.258-0.353,0.453-0.459c0.029-0.015-0.002-0.098,0.027-0.108
				c0.119-0.047,0.207-0.126,0.298-0.204c0.01-0.048-0.058-0.083-0.011-0.124c0.075,0.045,0.107-0.04,0.195-0.027
				c0.201-0.164,0.432-0.283,0.684-0.413c0.043-0.021,0.09-0.076,0.13-0.098c0.044-0.025,0.116-0.029,0.166-0.056
				c0.055-0.027,0.098-0.062,0.143-0.082c0.151-0.06,0.312-0.049,0.413-0.168c0.312-0.098,0.663-0.115,1.035-0.148L532.915,277.553z
				"/>
		</g>
		<g>
			<path fill-rule="evenodd" clip-rule="evenodd" fill="#FFFFFF" d="M504.776,267.671c0.151-0.422,0.306-0.844,0.451-1.269
				c1.105-1.896,2.396-3.484,4.465-4.409c0.433-0.192,1.006-0.35,1.575-0.519c0.545-0.159,1.067-0.441,1.528-0.584
				c0.328-0.101,1.456-0.395,1.703-0.35c0.226,0.042,0.456,0.335,0.589,0.429c0.924,0.656,1.744,1.442,2.332,2.063
				c0.805,0.849,1.68,2.064,1.99,3.188c0.279,1.009,0.244,2.36-0.055,3.536c-0.516,2.052-1.78,4.102-3.273,5.118
				c-0.916,0.634-2.519,1.157-3.625,1.162c-0.4,0.001-0.844-0.144-1.29-0.121c-0.999,0.05-1.673,0.811-2.958,0.674
				c-0.479-0.384-0.527-0.901-0.802-1.384c-0.474-0.826-1.349-1.457-1.896-2.204C504.567,271.697,504.275,269.664,504.776,267.671z"
				/>
		</g>
		<g>
			<path fill-rule="evenodd" clip-rule="evenodd" fill="#FFFFFF" d="M534.069,226.72c-0.453,0.427-0.713,0.033-1.034-0.097
				c1.044,2.349,1.206,4.254,0.8,5.818c-0.412,1.565-1.394,2.801-2.687,3.894c-0.19,0.735-0.406,1.459-0.931,2.02
				c-0.464,1.074-0.186,2.3,0.106,3.527c0.288,1.224,0.59,2.451,0.208,3.448c1.315,2.968,2.198,6.032,3.851,8.428
				c1.416,0.443,3.242,2.123,2.574,4.462c-0.989-0.05-2.394,0.587-3.754,0.692c-0.684-1.053-1.867-1.274-2.773-1.936
				c-1.332,0.768-2.831,1.294-4.086,0.537c0.114-0.646,0.146-0.516-0.23-1.056c-0.324,0.167-0.604,0.36-1.113,0.404
				c-0.359-0.281-0.371-0.332-0.166-0.742c-0.678-0.467-1.373-0.101-1.861,0.427l-0.101-0.437c-0.325,0.126-0.581,0.292-0.616,0.601
				c-0.418-0.513-1.156-0.505-1.914-0.455c-0.816-0.645-1.656-1.244-2.662-1.555c-0.786-2.485-3.633-1.418-6.282-0.675
				c-0.692,0.176-0.28,0.882-0.909,1.084c-0.241-0.106-0.363-0.541-0.219-0.756c-0.544-0.234-1.373-0.009-1.705-0.575
				c0.411-0.533,0.85,0.131,1.377-0.01c-0.487-1.15-1.77-1.995-2.133-3.683c0.496,0.436,1.121,0.655,1.716,0.926
				c0.392,0.813,0.217,1.44,0.648,2.001c1.282,0.364,3.249-0.564,4.974-0.811c0.598-0.943,0.517-2.232,0.781-3.345
				c-1.576-0.216-3.653-0.353-5.121,0.02c-0.382,0.449-0.596,0.965-0.532,1.602c-0.827-0.189-0.075-0.768-0.299-1.305
				c-0.405-0.498-1.19-0.276-1.739-0.488c-0.162-0.307,0.039-0.476,0.412-0.575c-0.34-1.056-1.358-1.939-1.526-2.644
				c0.278-0.205,0.948,0.455,1.421-0.02c0.289,1.791,1.172,2.292,2.299,2.389c1.125,0.098,2.474-0.234,3.604-0.113
				c0.703-0.946,0.867-2.143,1.123-3.296c1.122-0.825,1.498-1.982,1.838-3.159c0.34-1.178,0.641-2.374,1.672-3.289
				c1.369-2.933,2.193-5.768,4.852-7.573c0.99-0.672,2.267-0.811,3.431-1.347c1.569-0.725,0.692-2.49,1.964-2.939
				c-0.193-0.525-0.521-0.425-0.702-1.017c0.913-0.085,0.937,0.03,1.85-0.584c0.263,0.219,0.576,0.211,0.757,0.811
				c0.518-0.189,0.006-0.82,0.662-0.949C532.62,224.811,534.563,225.499,534.069,226.72z"/>
		</g>
		<g>
			<path fill-rule="evenodd" clip-rule="evenodd" fill="#FFFFFF" d="M508.377,202.705c-0.385,0.041-0.746,0.217-1.027,0.138
				c-0.645-0.179-1.121-0.692-1.697-0.724c-0.793-0.049-1.589,0.934-1.314,1.951c0.201,0.749,1.084,1.286,1.461,2.058
				c-0.256,1.224-0.93,2.434-0.912,3.595c0.043,2.219,2.301,5.054,4.845,7.05c1.362,1.052,2.885,2.007,4.351,2.602
				c1.468,0.592,2.885,0.826,4.022,0.374c1.06-0.422,1.716-1.316,2.743-1.951c1.164,0.475,2.385,1.551,3.355,0.488l0.127-0.154
				c0.176-0.488,0.311-0.951,0.129-1.404c-0.256-0.647-0.942-1.045-1.31-1.667c-0.233-0.393-0.144-1.046-0.283-1.534
				c-0.739-2.615-2.647-4.864-5.284-7.182l-0.623-0.477C513.967,203.725,510.82,202.433,508.377,202.705z M506.572,203.466
				c-0.263,0.372-0.431,0.721-0.562,1.126c-0.959-0.035-1.493-1.045-0.997-1.624C505.367,202.555,506.177,202.806,506.572,203.466z
				 M523.912,216.907c0.589,1.568-1.832,1.452-1.785-0.008c0.238-0.151,0.458-0.421,0.672-0.714
				C523.154,216.303,523.514,216.469,523.912,216.907z"/>
		</g>
		<g>
			<path fill-rule="evenodd" clip-rule="evenodd" fill="#FFFFFF" d="M537.537,293.088l-0.527,0.211
				c0.061,1.326-0.209,2.738-0.038,4.241c0.181,1.561,0.466,3.563,0.887,5.157c-0.179,0.391-0.629,0.588-0.812,0.973
				c0.558,0.15,0.062,0.749,0.223,0.98c0.477-0.025,0.8-0.415,1.021-0.441c0.263,1,0.688,2.165,1.004,3.275
				c-0.245,0.482-0.398,1.04-0.483,1.656c0.263,0.301,0.8,0.16,1.229,0.192c0.185,0.516,0.336,1.081,0.367,1.838
				c-0.434,1.276-1.242,2.237-1.362,3.792c1.153-1.342,3.456-1.729,4.634-1.143c-0.529-1.76-2.208-2.123-1.994-4.684
				c0.836-0.236,0.08-0.934-0.016-1.548c-0.075-0.51,0.094-1.401,0.109-2.132c0.016-0.832,0.035-1.604-0.077-2.28
				c0.313-0.573,0.808-1.026,0.974-1.701c-0.426-0.446-0.912-0.778-1.338-1.226C540.604,296.87,539.276,294.491,537.537,293.088z"/>
		</g>
		<g>
			<path fill-rule="evenodd" clip-rule="evenodd" fill="#FFFFFF" d="M534.738,269.421c1.5,0.889,2.839,2.016,4.037,3.335
				c-0.594,0.569-1.635,0.665-2.006,1.46c0.319,0.124,0.408,0.323,0.244,0.737c0.389-0.146,0.928-1.128,1.4-0.42
				c-0.09,0.591-0.755,0.555-0.727,1.272c0.425,0.642,1.188,0.79,1.002,1.615c0.486-0.013,1.074-0.218,1.52-0.649
				c0.16,0.342-0.05,0.848,0.117,1.406c0.442-0.054,0.556,0.281,0.868,0.385c0.675-0.826,1.358-1.045,2.503-1.045
				c-0.051-1.045-1.188-0.753-1.438-1.55c-0.106-0.704,0.301-0.955,0.073-1.435c0.317-0.232,0.746-0.335,1.072-0.558
				c-1.004-0.619-1.681-1.656-2.618-2.347c0.078-0.396,0.405-0.537,0.486-0.934c-0.404-0.623-0.615-1.445-0.525-2.544
				c-1.047,0.28-0.225,2.437-0.854,3.147c-1.648-0.883-3.086-2.019-4.502-3.161c-0.116-0.368,0.271-0.264,0.158-0.631
				c-1.241-2.048-4.207-3.111-6.359-4.391c-1.518-0.897-2.947-1.37-4.903-2.301c-1.325-0.629-2.597-1.524-4.046-1.438
				c-0.615-0.229-1.279-0.374-1.816-0.7c-0.083,0.064,0.901,0.804,1.409,0.892c1.452,1.621,3.204,2.833,5.03,4.005
				c1.827,1.171,3.729,2.299,5.416,3.754c1.171,1.007,2.073,2.438,3.738,2.636C534.418,269.933,534.479,269.585,534.738,269.421z"/>
		</g>
	</g>
	<g>
		<g>
			<path fill-rule="evenodd" clip-rule="evenodd" fill="#FFFFFF" d="M502.186,333.516c-0.258-0.199-0.648-0.126-0.816-0.398
				c-0.395-0.023-0.828,0.076-1.172,0.312c0.269,0.309,0.019,0.745-0.184,1.061c-0.363,0.063-0.75,0.248-1.063,0.039
				c0.212-0.123,0.311-0.272,0.396-0.428c-0.191-0.109-0.455,0.193-0.666,0.194c-0.341-0.011-0.649-0.162-1.029,0.063
				c-0.429-0.179-0.8-0.113-1.218-0.236c-1.513-0.461-2.617-2.106-4.05-2.951c-0.115-0.195-0.262-0.228-0.377-0.401
				c-1.294,0.53-1.959,0.96-2.989,1.734c0.38,0.678,1.097,1.615,0.827,1.982c-0.082,0.22,0.301,0.087,0.23,0.208
				c1.125,1.914,1.16,3.525,0.297,4.823c-0.179,0.015-0.09-0.133-0.223-0.218c-0.074,0.237-0.233,0.444-0.045,0.779
				c-0.115,0.111-0.362,0.355-0.494,0.344c-0.426-0.312-1.049-0.112-1.496-0.02c-0.142,0.91-0.303,1.793,0.029,2.824
				c0.644,0.438,0.932,1,1.646,1.16c0.321,0.586,0.887,0.473,1.379,0.566c0.583-0.334,1.083,0.197,1.388,0.66
				c0.293,0.19,0.635,0.225,0.875,0.569c0.648,0.151,1.4,0.004,2.098,0.02c0.145-0.364,0.386-0.183,0.73-0.315
				c0.23,0.125,0.484,0.172,0.713,0.301c0.725-0.096,1.52-0.053,2.23-0.402c0.336-0.166,0.66-0.492,0.95-0.699
				c0.288-0.639,1.021-0.988,0.995-1.662c0.524-0.417,0.746-0.869,1.294-1.298c0.072-0.165-0.024-0.372,0.237-0.493
				c-0.191-1.164,0.679-2.08,0.945-3.137c-0.17-0.318-0.015-0.562-0.266-0.951c0.026-0.17-0.056-0.367,0.07-0.52
				c-0.195-0.227-0.242-0.27-0.386-0.574c0.065-0.588-0.221-1.129-0.368-1.657c0.097-0.147,0.09-0.396,0.008-0.663l-0.027-0.043
				C502.366,333.969,502.377,333.666,502.186,333.516z M492.691,339.519c-0.126,0.062-0.17-0.175-0.271-0.194
				c0.007-0.449,0.028-0.891,0.356-1.232C492.936,338.625,492.903,339.101,492.691,339.519z M496.971,337.006
				c-0.367-0.28-0.823-0.705-0.941-1.217c0.633-0.098,1.164,0.275,1.711,0.588C497.676,336.668,497.322,336.979,496.971,337.006z"/>
		</g>
		<g>
			<path fill-rule="evenodd" clip-rule="evenodd" fill="#FFFFFF" d="M503.434,324.953c0.436,0.645,1.408,0.868,1.859,1.396
				c1.053,1.225,0.867,3.475,1.004,4.88c0.181,1.706,0.145,3.095,0.193,4.812c0.049,0.45-0.434,0.338-0.424,0.773
				c0.164,2.773-0.076,5.426-0.382,8.492c-0.055,0.605-0.54,2.318-0.234,2.71c0.325,0.405,1.211,0.441,1.8-0.063
				c0.508-0.43,0.334-2.178,0.396-2.822c0.292-2.809,0.396-5.994,0.54-8.377c-0.107-0.299-0.322-0.548-0.375-0.85
				c-0.251-1.467-0.049-3.334-0.184-4.971c-0.141-1.72-0.549-3.327-0.588-4.877c1.223-0.566,2.181-2.072,2.397-3.607
				c0.224-1.54-0.296-3.075-1.846-3.767c-0.688-0.312-1.409-0.23-2.198,0.192l-0.412,0.303
				C503.604,320.827,502.076,322.936,503.434,324.953z M505.893,347.797c-0.146-0.672,0.205-1.682,1.054-1.566
				C507.484,347.137,506.824,347.984,505.893,347.797z"/>
		</g>
		<g>
			<path fill-rule="evenodd" clip-rule="evenodd" fill="#FFFFFF" d="M461.76,368.388c-0.148,0.138-0.461,0.2-0.559,0.362
				c-2.734,0.838-5.637,2.019-8.417,2.945c-0.036,0.082,0.019,0.219-0.083,0.262c0.217,0.216,0.271,0.852-0.135,0.959
				c-0.322,0.092-0.734-0.308-0.575-0.695c-0.118-0.115-0.241-0.221-0.407-0.254c0.076-0.052-0.072-0.118-0.051-0.232
				c-0.014-0.151,0.336-0.07,0.336-0.211c-0.15-0.52-0.33-1.061-0.418-1.589c-0.292,0.022-0.516,0.194-0.75,0.159l-0.051-0.229
				c0.018-0.148,0.265-0.146,0.436-0.193l-0.057-0.266c-1.396,0.328-2.526,0.212-2.873-1.061c-0.985,0.347-1.484-0.086-2.163-0.473
				c-0.321-0.184-0.793-0.294-0.738-0.729c0.293-0.201,0.771-0.147,1.247-0.309c-0.231-1.422-0.568-3.053-0.782-4.634
				c-0.101-0.747-0.181-1.62-0.405-2.278c-0.209-0.613-0.91-1.139-1-1.84c0.537-0.316,1.615-0.412,2.498-0.586
				c2.058-0.4,4.475-1.101,6.453-1.511c0.209,0.746,0.301,1.644,0.387,2.401c-0.09,0.092-0.236,0.148-0.412,0.182
				c0.43,1.976,1.137,4.357,1.664,6.365c0.406-0.094,0.664-0.213,0.987-0.168c0.197,0.439,0.083,0.967,0.114,1.466
				c-0.362,0.446-1.105,0.54-1.627,0.614c-0.059,0.143,0.154,0.287,0.077,0.432c-0.028,0.227-0.187,0.377-0.495,0.439
				c-0.311,0.688-1.139,1.07-1.967,1.438c-0.021,0.408,0.459,0.012,0.563,0.217c0.093,0.307-0.364,0.276-0.558,0.404
				c0.132,0.479,0.246,0.991,0.459,1.583c3.375-1.075,6.989-2.37,10.323-3.754c0.163,0.219,0.485,0.202,0.552,0.34
				c0.123,0.253-0.059,0.483-0.021,0.648c0.158,0.766,0.947,0.433,1.285,0.931c0.486,0.719-0.338,1.068-0.734,1.474
				c-0.128,0.129-0.234,0.05-0.422,0.073c-0.572,0.082-1.199,0.326-1.359-0.419c-0.105-0.491,0.424-0.759,0.303-1.272
				C462.258,368.836,461.666,369.005,461.76,368.388z"/>
		</g>
		<g>
			<path fill-rule="evenodd" clip-rule="evenodd" fill="#FFFFFF" d="M439.661,369.789c0.222-0.444,0.302-0.982,0.562-1.218
				c0.6-0.54,1.399-0.622,1.807-1.214c0.568-0.812,0.162-2.482-0.959-3.041c-0.826-0.415-1.893,0.08-2.848-0.166
				c-0.947-1.309-1.592-3.051-2.629-4.015c-0.994-0.927-2.479-1.378-4.133-1.489c-1.657-0.107-3.496,0.125-5.229,0.629
				c-1.841,0.537-3.728,1.33-5.301,2.365c-1.573,1.036-2.838,2.322-3.327,3.912c-0.458,1.475-0.204,2.938-0.457,4.565
				c-1.306,0.812-3.196,1.151-3.051,3.089l0.032,0.264c0.284,0.611,0.578,1.158,1.114,1.362c0.77,0.293,1.659-0.075,2.494,0.076
				c0.524,0.099,1.028,0.758,1.571,1.038c2.896,1.488,6.405,1.416,10.476,0.59l0.898-0.252
				C434.851,374.93,438.268,372.639,439.661,369.789z M440.162,367.216c-0.172-0.593-0.384-1.06-0.671-1.548
				c0.667-0.998,1.943-0.721,2.161,0.295C441.807,366.693,441.041,367.344,440.162,367.216z M415.521,374.098
				c-0.921-0.37-0.863-1.168-0.438-1.703c0.43-0.531,1.224-0.816,1.843-0.153c-0.054,0.38,0.009,0.845,0.095,1.325
				C416.643,373.834,416.216,374.066,415.521,374.098z"/>
		</g>
		<g>
			<path fill-rule="evenodd" clip-rule="evenodd" fill="#FFFFFF" d="M436.385,376.672l1.059-0.244
				c1.703-0.105,3.194,0.056,4.461,0.926c0.266,0.181,0.546,0.461,0.838,0.729c0.281,0.264,0.635,0.461,0.88,0.681
				c0.169,0.151,0.731,0.699,0.782,0.856c0.043,0.146-0.076,0.385-0.094,0.494c-0.134,0.768-0.369,1.519-0.576,2.072
				c-0.277,0.766-0.758,1.695-1.379,2.277c-0.557,0.529-1.455,1.011-2.346,1.293c-1.553,0.488-3.427,0.593-4.719,0.184
				c-0.797-0.254-1.797-0.916-2.233-1.524c-0.157-0.218-0.228-0.523-0.414-0.761c-0.419-0.531-1.222-0.592-1.609-1.359
				c0.098-0.43,0.46-0.669,0.71-1.025c0.432-0.608,0.59-1.366,0.957-1.986C433.346,378.201,434.777,377.178,436.385,376.672z"/>
		</g>
		<g>
			<path fill-rule="evenodd" clip-rule="evenodd" fill="#FFFFFF" d="M461.764,376.761c0.008,0.214,0.145,0.395,0.178,0.583
				c0.006,0.039-0.02,0.074-0.021,0.113c-0.006,0.102,0.031,0.184,0.041,0.271c-0.1,0.277-0.018,0.634-0.123,0.91
				c0.01,0.056,0.037,0.077,0.053,0.116c-0.057,0.027-0.062,0.073-0.104,0.104c0.033,0.188-0.129,0.291-0.086,0.488
				c-0.148,0.07-0.035,0.258-0.184,0.331c0.027,0.097-0.031,0.106-0.072,0.2c-0.043,0.09-0.112,0.167-0.16,0.266
				c-0.037,0.074-0.037,0.15-0.074,0.201c-0.06,0.085-0.184,0.143-0.18,0.258c-0.107,0.079-0.159,0.186-0.271,0.26
				c0.037,0.062-0.039,0.069-0.027,0.115c-0.16,0.096-0.244,0.225-0.34,0.348c-0.169,0.07-0.23,0.193-0.342,0.291
				c-0.021,0.045,0.023,0.097,0.039,0.137c0.017,0.047-0.08,0.043-0.049,0.097c0.074,0.304,0.16,0.612,0.194,0.902
				c-0.097,0.065-0.055,0.195-0.086,0.291c-0.112,0.135-0.128,0.313-0.207,0.466c-0.116,0.062-0.198,0.195-0.335,0.287
				c-0.031,0.02-0.079,0.033-0.109,0.057c-0.063,0.046-0.104,0.12-0.176,0.156c-0.108,0.055-0.293,0.076-0.359,0.115
				c-0.047,0.033-0.066,0.092-0.117,0.126c-0.063,0.048-0.29,0.169-0.355,0.181c-0.076,0.016-0.155-0.004-0.234-0.003
				c0.021-0.091-0.049-0.13-0.043-0.217c0.007-0.096,0.129-0.177,0.108-0.28c0.099,0.008,0.143-0.079,0.161-0.142
				c-0.015-0.073-0.141,0.041-0.156-0.065c0.171-0.137,0.282-0.305,0.395-0.47c0.047-0.026,0.062,0.001,0.105-0.019
				c0.016-0.174,0.125-0.281,0.027-0.491c0.086-0.041,0.14-0.102,0.224-0.143c-0.04-0.069-0.104-0.103-0.175-0.126
				c-0.11,0.099-0.207,0.135-0.369,0.225c-0.129,0.074-0.198,0.194-0.445,0.22c-0.117,0.205-0.503,0.241-0.852,0.38
				c-0.083,0.033-0.161,0.089-0.242,0.116c-0.25,0.077-0.591,0.14-0.862,0.17c-0.138,0.017-0.291,0.044-0.401,0.048
				c-0.056,0.004-0.097-0.031-0.162-0.035c-0.238-0.021-0.506,0.062-0.661-0.026c-0.065,0.026-0.073,0.027-0.144,0.038
				c-0.088-0.039-0.191-0.055-0.327-0.03c0.009-0.055-0.04-0.032-0.048-0.068c-0.155,0.001-0.256-0.073-0.422-0.058
				c-0.029-0.011-0.036-0.051-0.062-0.066c-0.323-0.041-0.588-0.175-0.887-0.26c-0.078-0.113-0.271-0.066-0.32-0.217
				c-0.246-0.039-0.475-0.235-0.668-0.383c-0.139-0.102-0.27-0.218-0.373-0.341c-0.032-0.021-0.076-0.017-0.11-0.028
				c-0.128-0.307-0.503-0.357-0.54-0.731c-0.15-0.055-0.193-0.272-0.298-0.438c-0.077-0.119-0.161-0.242-0.165-0.375
				c-0.277-0.462-0.332-1.219-0.4-1.777c0.02-0.035,0.033-0.075,0.047-0.116c-0.092-0.29,0.076-0.511,0.061-0.792
				c0.112-0.086,0.082-0.295,0.082-0.415c0.118,0.003,0.068-0.114,0.059-0.132c0.022,0.003,0.022,0.039,0.062,0.018
				c0.048-0.229,0.103-0.453,0.262-0.609c-0.023-0.117,0.069-0.159,0.054-0.268c0.033-0.013,0.031-0.051,0.088-0.047
				c0-0.068,0.059-0.103,0.062-0.171c0.153-0.094,0.206-0.25,0.292-0.384c0.154-0.091,0.177-0.26,0.311-0.362l-0.029-0.123
				c0.021,0.017,0.071,0.04,0.102,0.003c0.045-0.107,0.168-0.274,0.107-0.373c0.18,0.033,0.199-0.262,0.426-0.27
				c0.004-0.071,0.053-0.12,0.064-0.191c0.189-0.082,0.273-0.226,0.516-0.281c0.037-0.089,0.201-0.122,0.36-0.168
				c-0.005,0.012-0.042,0.074,0.019,0.061c0.403-0.291,0.875-0.497,1.399-0.706l0.886-0.239c0.606-0.15,1.137-0.145,1.621-0.111
				c0.094,0.005,0.191-0.017,0.25-0.008c0.062,0.011,0.121,0.067,0.178,0.07c0.033-0.003,0.059-0.032,0.089-0.024
				c0.064,0.006,0.148,0.048,0.218,0.068c0.078,0.015,0.164,0.006,0.234,0.022c0.02,0.004,0.055,0.046,0.087,0.055
				c0.091,0.027,0.219,0.043,0.309,0.08c0.101,0.038,0.171,0.1,0.292,0.114c0.055,0.001,0.096-0.058,0.099-0.046
				c0.023,0.035-0.04,0.031-0.003,0.07c0.177,0.124,0.414,0.139,0.576,0.294c0.023,0.022,0.09-0.036,0.112-0.009
				c0.082,0.098,0.185,0.157,0.285,0.22c0.051-0.005,0.063-0.081,0.114-0.049c-0.02,0.087,0.069,0.093,0.085,0.178
				c0.219,0.14,0.405,0.323,0.604,0.521c0.034,0.036,0.101,0.065,0.134,0.095c0.036,0.034,0.063,0.103,0.104,0.143
				c0.043,0.041,0.093,0.069,0.124,0.109c0.104,0.127,0.142,0.279,0.288,0.34c0.188,0.271,0.311,0.598,0.458,0.937L461.764,376.761z
				"/>
		</g>
		<g>
			<path fill-rule="evenodd" clip-rule="evenodd" fill="#FFFFFF" d="M462.459,346.951c0.445,0.016,0.894,0.03,1.34,0.035
				c2.141,0.469,4.052,1.205,5.568,2.883c0.317,0.352,0.646,0.849,0.984,1.337c0.32,0.47,0.75,0.876,1.027,1.271
				c0.198,0.28,0.828,1.265,0.863,1.511c0.03,0.23-0.18,0.539-0.228,0.693c-0.333,1.082-0.823,2.105-1.233,2.856
				c-0.558,1.028-1.438,2.235-2.414,2.877c-0.871,0.579-2.164,0.96-3.375,1.04c-2.108,0.147-4.447-0.426-5.875-1.531
				c-0.888-0.678-1.874-2.039-2.221-3.09c-0.125-0.382-0.125-0.851-0.281-1.268c-0.359-0.935-1.289-1.342-1.555-2.604
				c0.219-0.577,0.691-0.78,1.065-1.189c0.639-0.702,0.967-1.731,1.506-2.48C458.576,347.992,460.412,347.087,462.459,346.951z"/>
		</g>
		<g>
			<path fill-rule="evenodd" clip-rule="evenodd" fill="#FFFFFF" d="M510.445,362.104c-0.543-0.297-0.25-0.664-0.226-1.008
				c-1.903,1.714-3.661,2.454-5.274,2.548c-1.612,0.097-3.092-0.458-4.53-1.349c-0.757,0.046-1.511,0.067-2.208-0.258
				c-1.162-0.106-2.239,0.535-3.317,1.192c-1.07,0.658-2.144,1.327-3.211,1.271c-2.412,2.177-5.049,3.967-6.815,6.282
				c0.018,1.485-1.014,3.741-3.446,3.835c-0.26-0.958-1.302-2.094-1.821-3.354c0.786-0.979,0.632-2.17,0.98-3.238
				c-1.146-1.027-2.109-2.289-1.78-3.72c0.648-0.091,0.534-0.022,0.93-0.546c-0.257-0.254-0.529-0.461-0.728-0.932
				c0.156-0.429,0.202-0.455,0.652-0.39c0.236-0.788-0.328-1.338-0.984-1.635l0.387-0.231c-0.223-0.268-0.457-0.461-0.763-0.396
				c0.356-0.56,0.118-1.26-0.163-1.963c0.359-0.979,0.666-1.963,0.652-3.014c2.115-1.52,0.215-3.895-1.311-6.184
				c-0.385-0.6-0.928,0.012-1.317-0.525c0.03-0.26,0.399-0.512,0.654-0.441c0.05-0.592-0.421-1.307,0.014-1.801
				c0.636,0.227,0.14,0.847,0.44,1.308c0.938-0.82,1.344-2.304,2.836-3.173c-0.262,0.607-0.273,1.267-0.347,1.92
				c-0.653,0.623-1.302,0.651-1.703,1.238c0.055,1.331,1.546,2.91,2.315,4.475c1.085,0.273,2.285-0.203,3.428-0.3
				c-0.285-1.561-0.801-3.579-1.611-4.862c-0.548-0.221-1.104-0.263-1.688-0.004c-0.079-0.848,0.703-0.312,1.146-0.692
				c0.346-0.54-0.107-1.218-0.076-1.805c0.242-0.253,0.463-0.112,0.674,0.212c0.898-0.652,1.424-1.896,2.043-2.273
				c0.283,0.202-0.137,1.041,0.459,1.348c-1.614,0.83-1.816,1.826-1.561,2.926c0.26,1.098,0.989,2.279,1.229,3.393
				c1.117,0.371,2.307,0.154,3.484,0.039c1.131,0.812,2.349,0.812,3.573,0.767c1.226-0.042,2.456-0.128,3.646,0.571
				c3.214,0.393,6.162,0.303,8.699,2.271c0.944,0.734,1.471,1.907,2.342,2.847c1.172,1.269,2.578-0.108,3.398,0.962
				c0.438-0.342,0.243-0.623,0.748-0.979c0.361,0.842,0.261,0.898,1.126,1.58c-0.124,0.318-0.022,0.609-0.535,0.968
				c0.342,0.431,0.781-0.246,1.106,0.337C511.809,360.146,511.758,362.205,510.445,362.104z"/>
		</g>
		<g>
			<path fill-rule="evenodd" clip-rule="evenodd" fill="#FFFFFF" d="M525.381,330.294c-0.157-0.354-0.435-0.645-0.447-0.935
				c-0.027-0.672,0.314-1.284,0.17-1.844c-0.199-0.77-1.379-1.225-2.263-0.648c-0.651,0.426-0.894,1.431-1.511,2.029
				c-1.242,0.134-2.602-0.133-3.705,0.24c-2.095,0.727-4.102,3.746-5.219,6.781c-0.586,1.619-1.027,3.358-1.142,4.939
				c-0.116,1.575,0.096,2.994,0.879,3.94c0.725,0.879,1.776,1.227,2.696,2.013c-0.094,1.25-0.742,2.746,0.569,3.342l0.181,0.07
				c0.521,0.02,1.002,0.008,1.377-0.301c0.535-0.447,0.705-1.219,1.184-1.764c0.301-0.339,0.949-0.454,1.372-0.735
				c2.261-1.507,3.815-4.011,5.214-7.237l0.264-0.738C526.129,335.938,526.393,332.535,525.381,330.294z M524.104,328.811
				c-0.438-0.137-0.82-0.188-1.247-0.188c-0.265-0.926,0.536-1.746,1.239-1.453C524.6,327.381,524.607,328.229,524.104,328.811z
				 M516.627,349.453c-1.309,1.04-1.943-1.3-0.541-1.701c0.217,0.18,0.541,0.305,0.887,0.421
				C516.969,348.546,516.92,348.941,516.627,349.453z"/>
		</g>
		<g>
			<path fill-rule="evenodd" clip-rule="evenodd" fill="#FFFFFF" d="M448.399,385.942l-0.361-0.44
				c-1.245,0.469-2.671,0.644-4.049,1.27c-1.427,0.652-3.245,1.538-4.633,2.428c-0.425-0.047-0.752-0.416-1.173-0.471
				c0.029,0.572-0.693,0.287-0.865,0.511c0.168,0.448,0.641,0.636,0.734,0.837c-0.87,0.559-1.847,1.321-2.804,1.965
				c-0.536-0.084-1.114-0.057-1.723,0.049c-0.208,0.348,0.094,0.812,0.193,1.228c-0.432,0.335-0.923,0.655-1.631,0.916
				c-1.349-0.02-2.507-0.491-4.022-0.124c1.629,0.68,2.706,2.754,2.512,4.055c1.507-1.048,1.334-2.754,3.835-3.34
				c0.481,0.723,0.913-0.212,1.468-0.492c0.461-0.23,1.358-0.338,2.059-0.553c0.793-0.238,1.534-0.456,2.144-0.773
				c0.642,0.122,1.224,0.455,1.919,0.404c0.293-0.541,0.457-1.11,0.752-1.65C445.746,390.019,447.605,388.029,448.399,385.942z"/>
		</g>
		<g>
			<path fill-rule="evenodd" clip-rule="evenodd" fill="#FFFFFF" d="M470.07,375.984c-0.384,1.698-1.043,3.322-1.93,4.869
				c-0.727-0.389-1.137-1.351-2.012-1.457c-0.019,0.342-0.182,0.486-0.625,0.458c0.26,0.327,1.359,0.534,0.832,1.202
				c-0.59,0.1-0.76-0.544-1.438-0.297c-0.479,0.605-0.382,1.373-1.227,1.453c0.164,0.458,0.538,0.954,1.086,1.242
				c-0.277,0.26-0.82,0.219-1.301,0.545c0.188,0.407-0.096,0.619-0.102,0.947c0.998,0.39,1.418,0.969,1.766,2.059
				c0.984-0.372,0.354-1.362,1.037-1.845c0.636-0.323,1.004-0.013,1.388-0.373c0.318,0.226,0.549,0.604,0.864,0.843
				c0.277-1.145,1.059-2.109,1.426-3.213c0.402-0.047,0.638,0.218,1.038,0.171c0.473-0.571,1.188-1.03,2.263-1.286
				c-0.59-0.908-2.389,0.543-3.262,0.164c0.332-1.843,0.97-3.559,1.619-5.26c0.313-0.228,0.334,0.18,0.65-0.049
				c1.564-1.811,1.66-4.959,2.209-7.404c0.385-1.721,0.391-3.229,0.666-5.377c0.187-1.453,0.645-2.938,0.111-4.291
				c0.027-0.653-0.043-1.331,0.102-1.943c-0.087-0.059-0.483,1.104-0.408,1.615c-1.091,1.881-1.701,3.927-2.247,6.027
				c-0.546,2.098-1.03,4.254-1.894,6.309c-0.596,1.425-1.679,2.727-1.355,4.371C469.483,375.836,469.836,375.785,470.07,375.984z"/>
		</g>
	</g>
	<g>
		<g>
			<path fill-rule="evenodd" clip-rule="evenodd" fill="#FFFFFF" d="M399.026,364.811c0.108-0.309-0.084-0.656,0.123-0.898
				c-0.101-0.384-0.332-0.763-0.66-1.019c-0.209,0.351-0.703,0.249-1.067,0.159c-0.174-0.328-0.465-0.64-0.364-1
				c0.18,0.163,0.353,0.209,0.526,0.242c0.042-0.218-0.325-0.375-0.389-0.574c-0.098-0.324-0.047-0.668-0.381-0.958
				c0.035-0.461-0.142-0.796-0.153-1.229c-0.028-1.582,1.188-3.145,1.548-4.768c0.15-0.168,0.135-0.314,0.261-0.484
				c-0.896-1.059-1.509-1.56-2.562-2.297c-0.526,0.571-1.195,1.543-1.625,1.402c-0.236-0.009,0.011,0.311-0.13,0.282
				c-1.468,1.663-2.984,2.198-4.482,1.782c-0.066-0.167,0.102-0.127,0.14-0.281c-0.249,0.002-0.496-0.084-0.754,0.201
				c-0.14-0.076-0.447-0.234-0.476-0.364c0.165-0.499-0.216-1.031-0.441-1.429c-0.905,0.146-1.793,0.269-2.672,0.902
				c-0.222,0.748-0.664,1.19-0.599,1.922c-0.458,0.486-0.177,0.986-0.115,1.484c0.497,0.449,0.144,1.09-0.2,1.525
				c-0.093,0.334-0.023,0.673-0.276,1.004c0.058,0.668,0.429,1.334,0.629,2.001c0.391,0.026,0.293,0.313,0.524,0.597
				c-0.046,0.258-0.014,0.516-0.064,0.772c0.313,0.659,0.52,1.431,1.071,1.997c0.262,0.266,0.67,0.476,0.96,0.688
				c0.696,0.077,1.251,0.664,1.884,0.43c0.561,0.371,1.062,0.441,1.635,0.83c0.18,0.016,0.347-0.139,0.544,0.072
				c1.049-0.545,2.188,0,3.272-0.074c0.253-0.262,0.531-0.189,0.823-0.549c0.173-0.029,0.332-0.168,0.517-0.096
				c0.155-0.258,0.182-0.309,0.426-0.545c0.578-0.121,1.006-0.564,1.463-0.867c0.169,0.048,0.402-0.033,0.632-0.197l0.031-0.041
				C398.651,365.124,398.942,365.041,399.026,364.811z M390.385,357.651c-0.099-0.097,0.114-0.212,0.102-0.315
				c0.429-0.133,0.853-0.25,1.281-0.041C391.31,357.609,390.844,357.729,390.385,357.651z M394.091,360.936
				c0.153-0.433,0.416-0.996,0.867-1.269c0.284,0.569,0.096,1.192-0.03,1.808C394.631,361.506,394.225,361.268,394.091,360.936z"/>
		</g>
		<g>
			<path fill-rule="evenodd" clip-rule="evenodd" fill="#FFFFFF" d="M407.554,363.338c-0.48,0.611-0.39,1.605-0.75,2.197
				c-0.842,1.384-3.035,1.902-4.325,2.473c-1.572,0.703-2.9,1.099-4.517,1.68c-0.413,0.188-0.454-0.307-0.868-0.161
				c-2.584,1.018-5.179,1.614-8.19,2.274c-0.593,0.135-2.374,0.204-2.651,0.616c-0.285,0.435-0.042,1.284,0.621,1.691
				c0.565,0.351,2.174-0.36,2.807-0.499c2.761-0.595,5.821-1.483,8.131-2.088c0.253-0.196,0.421-0.475,0.693-0.624
				c1.314-0.69,3.152-1.079,4.667-1.72c1.59-0.668,2.989-1.553,4.454-2.072c0.917,0.988,2.646,1.43,4.174,1.158
				c1.532-0.266,2.835-1.233,3.01-2.92c0.083-0.753-0.221-1.412-0.867-2.033l-0.417-0.297
				C411.53,362.216,409.047,361.419,407.554,363.338z M386.601,372.771c0.593-0.35,1.661-0.33,1.818,0.516
				C387.723,374.078,386.71,373.714,386.601,372.771z"/>
		</g>
		<g>
			<path fill-rule="evenodd" clip-rule="evenodd" fill="#FFFFFF" d="M353.388,337.123c-0.176-0.1-0.332-0.376-0.519-0.42
				c-1.645-2.336-3.668-4.728-5.413-7.081c-0.09-0.013-0.204,0.085-0.274,0.003c-0.141,0.274-0.725,0.52-0.956,0.169
				c-0.183-0.282,0.063-0.794,0.483-0.767c0.072-0.145,0.134-0.293,0.116-0.464c0.072,0.056,0.087-0.106,0.204-0.117
				c0.138-0.064,0.171,0.296,0.305,0.253c0.449-0.307,0.907-0.646,1.382-0.893c-0.112-0.271-0.346-0.431-0.389-0.665l0.202-0.118
				c0.149-0.029,0.226,0.209,0.323,0.355l0.234-0.139c-0.745-1.223-0.987-2.336,0.114-3.059c-0.636-0.828-0.375-1.438-0.222-2.2
				c0.074-0.366,0.033-0.845,0.465-0.929c0.28,0.218,0.379,0.685,0.682,1.09c1.277-0.661,2.722-1.488,4.159-2.185
				c0.68-0.323,1.485-0.674,2.043-1.092c0.516-0.39,0.799-1.215,1.437-1.521c0.466,0.412,0.892,1.405,1.332,2.188
				c1.016,1.83,2.429,3.906,3.434,5.659c-0.643,0.432-1.466,0.797-2.16,1.113c-0.114-0.055-0.215-0.178-0.301-0.333
				c-1.743,1.024-3.79,2.437-5.533,3.562c0.214,0.358,0.412,0.562,0.469,0.883c-0.353,0.325-0.893,0.383-1.359,0.566
				c-0.535-0.207-0.853-0.883-1.087-1.352c-0.156-0.016-0.227,0.229-0.386,0.205c-0.226,0.041-0.418-0.063-0.574-0.334
				c-0.753-0.086-1.373-0.75-1.978-1.422c-0.393,0.105,0.13,0.438-0.029,0.603c-0.265,0.184-0.375-0.263-0.556-0.407
				c-0.415,0.275-0.87,0.544-1.362,0.934c2.065,2.867,4.421,5.902,6.772,8.643c-0.154,0.221-0.041,0.523-0.147,0.631
				c-0.202,0.191-0.479,0.093-0.626,0.178c-0.677,0.392-0.115,1.036-0.485,1.511c-0.529,0.687-1.121,0.013-1.629-0.239
				c-0.164-0.079-0.119-0.205-0.202-0.376c-0.252-0.521-0.681-1.041-0.021-1.423c0.433-0.253,0.852,0.168,1.305-0.107
				C353.118,337.737,352.771,337.223,353.388,337.123z"/>
		</g>
		<g>
			<path fill-rule="evenodd" clip-rule="evenodd" fill="#FFFFFF" d="M345.199,316.56c0.491,0.071,1.026-0.019,1.331,0.155
				c0.701,0.404,1.027,1.135,1.714,1.342c0.947,0.283,2.41-0.617,2.593-1.855c0.141-0.91-0.66-1.773-0.721-2.756
				c0.952-1.305,2.412-2.453,3.01-3.738c0.573-1.229,0.546-2.776,0.139-4.381c-0.406-1.607-1.192-3.281-2.204-4.77
				c-1.082-1.582-2.412-3.132-3.882-4.311c-1.467-1.176-3.082-1.986-4.744-1.965c-1.545,0.018-2.857,0.714-4.487,0.974
				c-1.17-0.995-2.074-2.689-3.876-1.955l-0.239,0.114c-0.498,0.458-0.923,0.904-0.956,1.479c-0.04,0.821,0.584,1.552,0.692,2.394
				c0.073,0.528-0.403,1.213-0.501,1.814c-0.526,3.214,0.621,6.53,2.661,10.149l0.519,0.774
				C338.824,313.577,342.061,316.117,345.199,316.56z M347.802,316.238c0.509-0.348,0.89-0.691,1.262-1.118
				c1.157,0.323,1.289,1.624,0.389,2.146C348.808,317.639,347.949,317.115,347.802,316.238z M333.661,294.93
				c0.07-0.989,0.848-1.181,1.486-0.937c0.642,0.246,1.151,0.912,0.714,1.705c-0.378,0.065-0.8,0.266-1.233,0.5
				C334.256,295.92,333.907,295.579,333.661,294.93z"/>
		</g>
		<g>
			<path fill-rule="evenodd" clip-rule="evenodd" fill="#FFFFFF" d="M337.644,315.574l0.558,0.932
				c0.626,1.587,0.935,3.052,0.499,4.527c-0.091,0.309-0.266,0.663-0.436,1.022c-0.16,0.349-0.24,0.746-0.371,1.046
				c-0.092,0.213-0.438,0.914-0.573,1.009c-0.123,0.089-0.387,0.049-0.5,0.065c-0.77,0.113-1.555,0.118-2.149,0.096
				c-0.814-0.032-1.846-0.197-2.593-0.608c-0.674-0.368-1.412-1.073-1.955-1.833c-0.946-1.328-1.626-3.079-1.634-4.434
				c-0.007-0.838,0.313-1.998,0.761-2.6c0.158-0.217,0.424-0.379,0.595-0.629c0.378-0.562,0.183-1.346,0.792-1.952
				c0.438-0.037,0.781,0.231,1.2,0.36c0.706,0.229,1.478,0.137,2.181,0.298C335.247,313.153,336.661,314.201,337.644,315.574z"/>
		</g>
		<g>
			<path fill-rule="evenodd" clip-rule="evenodd" fill="#FFFFFF" d="M345.434,339.729c-0.201,0.075-0.329,0.262-0.497,0.349
				c-0.036,0.021-0.079,0.003-0.117,0.015c-0.099,0.027-0.164,0.09-0.243,0.126c-0.296-0.009-0.609,0.179-0.906,0.166
				c-0.05,0.025-0.062,0.06-0.095,0.087c-0.042-0.046-0.085-0.035-0.131-0.066c-0.168,0.091-0.318-0.031-0.492,0.071
				c-0.111-0.118-0.255,0.046-0.369-0.071c-0.083,0.055-0.113,0.005-0.213-0.01c-0.101-0.011-0.192-0.051-0.305-0.066
				c-0.08-0.013-0.15,0.007-0.212-0.01c-0.101-0.031-0.194-0.129-0.303-0.091c-0.107-0.074-0.223-0.089-0.33-0.178
				c-0.045,0.055-0.078-0.014-0.119,0.014c-0.138-0.122-0.288-0.163-0.435-0.217c-0.122-0.142-0.255-0.161-0.386-0.235
				c-0.049-0.006-0.083,0.053-0.115,0.08c-0.04,0.029-0.065-0.064-0.108-0.016c-0.267,0.166-0.533,0.341-0.797,0.463
				c-0.091-0.07-0.201,0.008-0.304,0.012c-0.165-0.065-0.337-0.025-0.502-0.051c-0.1-0.094-0.25-0.13-0.381-0.234
				c-0.027-0.022-0.057-0.062-0.087-0.085c-0.065-0.044-0.148-0.06-0.203-0.116c-0.088-0.088-0.166-0.256-0.222-0.303
				c-0.047-0.039-0.108-0.039-0.156-0.077c-0.065-0.047-0.249-0.225-0.285-0.28c-0.036-0.066-0.041-0.151-0.068-0.225
				c0.094-0.006,0.107-0.085,0.19-0.109c0.094-0.023,0.213,0.068,0.303,0.017c0.023,0.097,0.119,0.113,0.184,0.112
				c0.065-0.039-0.083-0.125,0.011-0.17c0.188,0.119,0.379,0.173,0.573,0.229c0.036,0.035,0.014,0.06,0.047,0.094
				c0.172-0.039,0.309,0.033,0.477-0.125c0.066,0.07,0.138,0.099,0.204,0.167c0.058-0.062,0.066-0.131,0.065-0.206
				c-0.127-0.072-0.191-0.155-0.328-0.277c-0.109-0.104-0.246-0.133-0.346-0.358c-0.231-0.048-0.388-0.407-0.625-0.69
				c-0.057-0.072-0.137-0.127-0.187-0.199c-0.153-0.209-0.317-0.515-0.428-0.764c-0.062-0.125-0.134-0.262-0.174-0.365
				c-0.017-0.057,0.003-0.104-0.013-0.168c-0.058-0.23-0.217-0.459-0.184-0.635c-0.047-0.057-0.047-0.061-0.078-0.127
				c0.012-0.096-0.01-0.2-0.074-0.317c0.054-0.009,0.015-0.05,0.048-0.066c-0.048-0.149-0.009-0.268-0.074-0.421
				c0-0.031,0.037-0.051,0.041-0.077c-0.058-0.325-0.014-0.615-0.027-0.928c0.083-0.108-0.021-0.277,0.105-0.374
				c-0.04-0.244,0.079-0.521,0.157-0.753c0.052-0.162,0.125-0.322,0.208-0.46c0.008-0.033-0.012-0.076-0.008-0.115
				c0.254-0.214,0.184-0.59,0.528-0.739c0.006-0.157,0.201-0.269,0.327-0.419c0.089-0.112,0.179-0.228,0.302-0.274
				c0.354-0.405,1.057-0.692,1.569-0.931c0.039,0.008,0.079,0.009,0.122,0.009c0.249-0.181,0.512-0.087,0.773-0.188
				c0.117,0.079,0.308-0.014,0.418-0.05c0.035,0.112,0.132,0.03,0.143,0.015c0.008,0.021-0.029,0.032,0.005,0.06
				c0.23-0.021,0.46-0.038,0.664,0.062c0.101-0.062,0.169,0.017,0.269-0.032c0.021,0.032,0.053,0.016,0.068,0.071
				c0.069-0.021,0.119,0.022,0.183,0.005c0.137,0.115,0.304,0.115,0.458,0.158c0.134,0.117,0.299,0.086,0.44,0.183l0.108-0.067
				c-0.011,0.025-0.015,0.081,0.028,0.096c0.116,0.008,0.31,0.078,0.386-0.012c0.024,0.184,0.31,0.109,0.39,0.32
				c0.071-0.018,0.129,0.015,0.201,0.003c0.137,0.155,0.3,0.191,0.429,0.4c0.093,0.011,0.18,0.155,0.273,0.292
				c-0.016,0-0.09-0.016-0.054,0.031c0.401,0.301,0.746,0.684,1.107,1.117l0.5,0.766c0.333,0.529,0.49,1.035,0.613,1.507
				c0.021,0.089,0.074,0.176,0.084,0.237s-0.028,0.137-0.012,0.188c0.011,0.032,0.05,0.051,0.054,0.078
				c0.011,0.064-0.004,0.156,0.002,0.23c0.006,0.08,0.041,0.154,0.049,0.229c0.002,0.018-0.026,0.064-0.022,0.1
				c0,0.096,0.022,0.221,0.017,0.318c-0.007,0.107-0.04,0.193-0.017,0.314c0.014,0.05,0.083,0.07,0.071,0.08
				c-0.024,0.03-0.04-0.03-0.069,0.016c-0.056,0.205,0,0.439-0.096,0.639c-0.015,0.029,0.06,0.075,0.043,0.105
				c-0.069,0.107-0.094,0.223-0.124,0.34c0.02,0.044,0.098,0.032,0.083,0.092c-0.09,0.012-0.064,0.096-0.141,0.135
				c-0.067,0.255-0.181,0.487-0.309,0.738c-0.021,0.045-0.028,0.115-0.047,0.154c-0.021,0.047-0.079,0.09-0.104,0.145
				c-0.024,0.055-0.04,0.108-0.064,0.15c-0.089,0.137-0.225,0.221-0.234,0.38c-0.199,0.263-0.471,0.483-0.75,0.727L345.434,339.729z
				"/>
		</g>
		<g>
			<path fill-rule="evenodd" clip-rule="evenodd" fill="#FFFFFF" d="M373.999,331.152c0.125,0.43,0.255,0.863,0.389,1.292
				c0.223,2.191,0.118,4.238-1.01,6.202c-0.235,0.41-0.609,0.872-0.967,1.344c-0.349,0.451-0.604,0.986-0.896,1.375
				c-0.205,0.272-0.944,1.175-1.169,1.281c-0.207,0.1-0.568-0.003-0.733,0c-1.132,0.012-2.257-0.14-3.1-0.297
				c-1.152-0.219-2.575-0.687-3.489-1.412c-0.82-0.654-1.585-1.768-2.037-2.891c-0.794-1.966-0.98-4.365-0.371-6.064
				c0.369-1.055,1.354-2.419,2.246-3.074c0.322-0.238,0.768-0.383,1.116-0.662c0.777-0.633,0.875-1.639,1.992-2.287
				c0.614,0.029,0.957,0.416,1.463,0.646c0.868,0.389,1.95,0.381,2.829,0.662C371.792,327.766,373.228,329.24,373.999,331.152z"/>
		</g>
		<g>
			<path fill-rule="evenodd" clip-rule="evenodd" fill="#FFFFFF" d="M374.384,381.517c0.111-0.609,0.555-0.446,0.89-0.529
				c-2.225-1.289-3.475-2.733-4.062-4.237c-0.592-1.509-0.519-3.088-0.115-4.73c-0.276-0.707-0.531-1.421-0.434-2.182
				c-0.257-1.141-1.203-1.969-2.157-2.793c-0.956-0.818-1.92-1.635-2.194-2.667c-2.809-1.629-5.322-3.587-8.064-4.556
				c-1.41,0.476-3.867,0.19-4.703-2.09c0.832-0.542,1.589-1.885,2.629-2.766c1.169,0.445,2.257-0.072,3.382-0.069
				c0.624-1.405,1.528-2.71,2.988-2.835c0.289,0.589,0.187,0.5,0.804,0.717c0.165-0.325,0.281-0.649,0.663-0.98
				c0.458,0.018,0.497,0.051,0.572,0.5c0.823-0.018,1.172-0.725,1.255-1.438l0.338,0.291c0.188-0.291,0.299-0.574,0.145-0.843
				c0.64,0.164,1.229-0.273,1.819-0.76c1.039,0.044,2.07,0.032,3.067-0.305c2.096,1.548,3.774-0.985,5.482-3.143
				c0.456-0.548-0.293-0.882,0.099-1.415c0.257-0.05,0.609,0.223,0.62,0.486c0.579-0.133,1.116-0.8,1.715-0.536
				c-0.017,0.673-0.759,0.392-1.106,0.817c1.07,0.642,2.605,0.573,3.891,1.727c-0.66-0.062-1.292,0.129-1.934,0.262
				c-0.794-0.431-1.02-1.041-1.699-1.24c-1.253,0.457-2.296,2.362-3.549,3.574c0.073,1.117,0.89,2.111,1.334,3.168
				c1.398-0.75,3.161-1.859,4.132-3.023c0.043-0.589-0.089-1.133-0.511-1.609c0.78-0.334,0.508,0.576,1.006,0.879
				c0.624,0.164,1.128-0.475,1.698-0.626c0.31,0.155,0.244,0.407,0.002,0.707c0.894,0.657,2.237,0.771,2.787,1.244
				c-0.105,0.327-1.035,0.19-1.141,0.851c-1.281-1.28-2.294-1.168-3.261-0.582c-0.964,0.578-1.865,1.641-2.85,2.207
				c-0.011,1.179,0.559,2.242,1.031,3.328c-0.425,1.324-0.051,2.482,0.367,3.635c0.417,1.152,0.875,2.298,0.578,3.646
				c0.612,3.179,1.613,5.956,0.522,8.978c-0.408,1.128-1.359,1.988-1.984,3.105c-0.846,1.508,0.903,2.421,0.138,3.534
				c0.464,0.31,0.672,0.036,1.164,0.407c-0.688,0.604-0.774,0.527-1.153,1.561c-0.343-0.021-0.589,0.169-1.09-0.212
				c-0.304,0.458,0.479,0.665,0.023,1.159C376.674,382.21,374.697,382.799,374.384,381.517z"/>
		</g>
		<g>
			<path fill-rule="evenodd" clip-rule="evenodd" fill="#FFFFFF" d="M409.288,385.857c0.289-0.258,0.48-0.617,0.75-0.718
				c0.63-0.231,1.319-0.099,1.805-0.411c0.668-0.426,0.734-1.688-0.086-2.351c-0.605-0.488-1.634-0.403-2.397-0.806
				c-0.512-1.142-0.679-2.516-1.376-3.447c-1.338-1.764-4.834-2.735-8.063-2.852c-1.723-0.055-3.515,0.066-5.051,0.447
				c-1.534,0.382-2.816,1.025-3.473,2.061c-0.611,0.963-0.613,2.073-1.074,3.189c-1.221,0.301-2.844,0.146-3.003,1.576l-0.011,0.198
				c0.145,0.499,0.307,0.952,0.715,1.214c0.59,0.371,1.379,0.291,2.044,0.577c0.416,0.181,0.728,0.765,1.129,1.079
				c2.134,1.678,5,2.377,8.496,2.703l0.786,0.02C404.161,388.318,407.471,387.514,409.288,385.857z M410.304,384.18
				c-0.007-0.455-0.079-0.834-0.208-1.24c0.797-0.537,1.823-0.035,1.763,0.727C411.814,384.211,411.01,384.481,410.304,384.18z
				 M388.365,383.486c-1.398-0.918,0.63-2.248,1.449-1.037c-0.104,0.26-0.123,0.608-0.125,0.975
				C389.334,383.533,388.944,383.611,388.365,383.486z"/>
		</g>
		<g>
			<path fill-rule="evenodd" clip-rule="evenodd" fill="#FFFFFF" d="M332.552,329.875l0.302-0.482
				c-0.83-1.036-1.439-2.342-2.461-3.459c-1.063-1.156-2.473-2.615-3.749-3.66c-0.086-0.42,0.166-0.845,0.086-1.263
				c-0.537,0.203-0.49-0.571-0.752-0.666c-0.375,0.302-0.406,0.809-0.569,0.958c-0.8-0.656-1.828-1.352-2.736-2.062
				c-0.086-0.539-0.29-1.078-0.58-1.627c-0.394-0.092-0.743,0.338-1.11,0.564c-0.451-0.309-0.908-0.68-1.376-1.273
				c-0.398-1.289-0.304-2.539-1.122-3.871c-0.142,1.762-1.785,3.43-3.082,3.642c1.464,1.113,3.034,0.425,4.362,2.628
				c-0.538,0.681,0.486,0.805,0.922,1.247c0.364,0.365,0.747,1.188,1.165,1.788c0.476,0.682,0.911,1.322,1.399,1.805
				c0.085,0.648-0.052,1.305,0.212,1.951c0.607,0.114,1.196,0.094,1.806,0.207C327.849,328.61,330.321,329.762,332.552,329.875z"/>
		</g>
		<g>
			<path fill-rule="evenodd" clip-rule="evenodd" fill="#FFFFFF" d="M348.752,347.38c-1.736,0.165-3.482,0.043-5.229-0.317
				c0.145-0.814,0.93-1.503,0.761-2.365c-0.328,0.089-0.519-0.02-0.629-0.451c-0.229,0.348-0.085,1.459-0.887,1.164
				c-0.273-0.528,0.282-0.893-0.163-1.455c-0.72-0.27-1.425,0.058-1.761-0.719c-0.385,0.301-0.739,0.812-0.843,1.421
				c-0.334-0.183-0.462-0.712-0.922-1.067c-0.328,0.305-0.618,0.104-0.931,0.2c-0.06,1.065-0.483,1.647-1.408,2.317
				c0.656,0.818,1.405-0.09,2.077,0.409c0.504,0.507,0.317,0.95,0.784,1.202c-0.116,0.372-0.406,0.712-0.534,1.085
				c1.172-0.093,2.334,0.346,3.498,0.354c0.166,0.37-0.011,0.674,0.155,1.042c0.694,0.266,1.349,0.806,1.925,1.747
				c0.679-0.843-1.254-2.102-1.165-3.046c1.853-0.259,3.68-0.188,5.5-0.097c0.311,0.228-0.067,0.373,0.244,0.603
				c2.206,0.92,5.228,0.035,7.722-0.199c1.751-0.166,3.19-0.628,5.319-1.025c1.442-0.271,2.997-0.29,4.121-1.215
				c0.626-0.176,1.25-0.45,1.879-0.498c0.027-0.102-1.203-0.127-1.667,0.104c-2.122-0.457-4.258-0.41-6.426-0.281
				c-2.167,0.129-4.365,0.34-6.581,0.155c-1.543-0.124-3.115-0.75-4.578,0.069C348.71,346.774,348.866,347.095,348.752,347.38z"/>
		</g>
	</g>
	<g>
		<g>
			<path fill-rule="evenodd" clip-rule="evenodd" fill="#FFFFFF" d="M337.422,276.37c0.326,0.011,0.598-0.279,0.892-0.157
				c0.334-0.214,0.625-0.55,0.766-0.943c-0.399-0.092-0.454-0.591-0.477-0.967c0.255-0.267,0.46-0.642,0.838-0.656
				c-0.097,0.221-0.09,0.403-0.069,0.576c0.218-0.025,0.252-0.421,0.423-0.548c0.28-0.19,0.623-0.252,0.795-0.655
				c0.45-0.112,0.711-0.384,1.122-0.527c1.495-0.521,3.358,0.157,5.009-0.004c0.21,0.09,0.345,0.033,0.543,0.102
				c0.731-1.186,1.016-1.927,1.395-3.158c-0.706-0.324-1.839-0.66-1.837-1.115c-0.064-0.226-0.292,0.108-0.311-0.033
				c-2.036-0.883-3.011-2.161-3.079-3.716c0.138-0.117,0.153,0.056,0.309,0.045c-0.081-0.236-0.073-0.497-0.422-0.656
				c0.027-0.156,0.086-0.5,0.198-0.565c0.528,0.003,0.914-0.526,1.218-0.863c-0.418-0.817-0.807-1.626-1.684-2.266
				c-0.782,0.022-1.339-0.259-2.011,0.029c-0.605-0.285-0.994,0.141-1.449,0.354c-0.274,0.613-0.993,0.476-1.512,0.281
				c-0.348,0.018-0.647,0.19-1.042,0.051c-0.614,0.26-1.135,0.824-1.707,1.218c0.097,0.382-0.204,0.378-0.403,0.685
				c-0.262,0.036-0.496,0.148-0.755,0.177c-0.531,0.504-1.197,0.939-1.568,1.641c-0.173,0.331-0.243,0.783-0.355,1.125
				c0.14,0.684-0.244,1.396,0.175,1.928c-0.179,0.645-0.091,1.143-0.282,1.81c0.04,0.178,0.238,0.286,0.101,0.541
				c0.839,0.826,0.673,2.081,1.08,3.088c0.326,0.159,0.343,0.447,0.773,0.615c0.081,0.153,0.261,0.263,0.252,0.463
				c0.29,0.066,0.352,0.076,0.651,0.234c0.291,0.514,0.843,0.784,1.271,1.125c0.007,0.177,0.159,0.371,0.386,0.541l0.047,0.018
				C337.008,276.112,337.176,276.361,337.422,276.37z M341.558,265.93c0.064-0.123,0.238,0.043,0.333,0
				c0.26,0.366,0.5,0.735,0.437,1.206C341.887,266.799,341.632,266.395,341.558,265.93z M339.583,270.477
				c0.46,0.013,1.075,0.089,1.473,0.431c-0.454,0.451-1.101,0.461-1.726,0.534C339.209,271.167,339.31,270.707,339.583,270.477z"/>
		</g>
		<g>
			<path fill-rule="evenodd" clip-rule="evenodd" fill="#FFFFFF" d="M341.452,284.036c-0.732-0.266-1.651,0.128-2.326-0.035
				c-1.571-0.376-2.745-2.302-3.684-3.357c-1.151-1.277-1.935-2.42-2.988-3.779c-0.306-0.335,0.152-0.526-0.116-0.876
				c-1.766-2.145-3.132-4.43-4.692-7.086c-0.31-0.523-0.926-2.192-1.405-2.329c-0.502-0.137-1.238,0.357-1.418,1.112
				c-0.157,0.645,1.014,1.956,1.342,2.514c1.419,2.44,3.208,5.079,4.497,7.086c0.264,0.178,0.582,0.256,0.804,0.469
				c1.065,1.037,2.002,2.664,3.074,3.909c1.127,1.306,2.401,2.365,3.346,3.601c-0.658,1.175-0.545,2.96,0.181,4.331
				c0.723,1.376,2.046,2.317,3.705,1.966c0.742-0.154,1.277-0.645,1.668-1.45l0.156-0.487
				C343.741,287.48,343.737,284.869,341.452,284.036z M326.012,267.015c0.518,0.454,0.828,1.476,0.07,1.885
				C325.116,268.484,325.151,267.41,326.012,267.015z"/>
		</g>
		<g>
			<path fill-rule="evenodd" clip-rule="evenodd" fill="#FFFFFF" d="M349.619,224.41c0.043-0.199,0.255-0.432,0.242-0.621
				c1.723-2.284,3.375-4.944,5.078-7.328c-0.019-0.087-0.141-0.166-0.086-0.258c-0.303-0.05-0.717-0.531-0.455-0.858
				c0.213-0.262,0.777-0.182,0.876,0.226c0.162,0.024,0.325,0.037,0.479-0.033c-0.032,0.085,0.128,0.052,0.175,0.157
				c0.102,0.111-0.229,0.254-0.148,0.37c0.429,0.33,0.893,0.663,1.276,1.039c0.222-0.189,0.301-0.46,0.514-0.572l0.173,0.158
				c0.071,0.13-0.129,0.275-0.238,0.414l0.202,0.179c0.935-1.082,1.924-1.653,2.948-0.83c0.594-0.861,1.25-0.803,2.025-0.891
				c0.37-0.042,0.816-0.23,1.03,0.156c-0.121,0.333-0.535,0.572-0.828,0.983c1.02,1.014,2.253,2.133,3.355,3.288
				c0.519,0.545,1.1,1.207,1.668,1.607c0.531,0.373,1.406,0.381,1.893,0.896c-0.252,0.573-1.066,1.287-1.679,1.949
				c-1.436,1.533-2.98,3.521-4.339,5.017c-0.609-0.482-1.208-1.152-1.723-1.716c0.017-0.127,0.104-0.258,0.224-0.39
				c-1.509-1.346-3.481-2.859-5.087-4.171c-0.275,0.312-0.412,0.562-0.696,0.716c-0.418-0.237-0.642-0.734-0.955-1.119
				c0.031-0.572,0.577-1.085,0.955-1.454c-0.037-0.151-0.291-0.141-0.317-0.3c-0.107-0.204-0.068-0.419,0.143-0.649
				c-0.152-0.742,0.293-1.538,0.746-2.32c-0.224-0.344-0.377,0.258-0.582,0.156c-0.254-0.195,0.133-0.438,0.216-0.654
				c-0.39-0.311-0.782-0.66-1.305-1.008c-2.102,2.847-4.265,6.019-6.148,9.099c-0.257-0.083-0.512,0.121-0.646,0.05
				c-0.248-0.132-0.238-0.424-0.361-0.54c-0.581-0.524-1.022,0.208-1.585,0.004c-0.819-0.297-0.357-1.065-0.275-1.627
				c0.03-0.178,0.162-0.176,0.296-0.307c0.421-0.399,0.785-0.966,1.351-0.455c0.371,0.333,0.101,0.859,0.5,1.205
				C348.956,224.342,349.334,223.854,349.619,224.41z"/>
		</g>
		<g>
			<path fill-rule="evenodd" clip-rule="evenodd" fill="#FFFFFF" d="M366.678,210.28c0.083,0.488,0.334,0.971,0.263,1.315
				c-0.165,0.791-0.762,1.327-0.746,2.045c0.022,0.992,1.331,2.102,2.566,1.893c0.91-0.153,1.488-1.178,2.402-1.546
				c1.538,0.499,3.084,1.53,4.494,1.698c1.348,0.163,2.81-0.346,4.212-1.232c1.402-0.888,2.75-2.155,3.85-3.579
				c1.168-1.517,2.223-3.263,2.887-5.024c0.66-1.761,0.926-3.546,0.39-5.119c-0.497-1.462-1.565-2.496-2.316-3.963
				c0.579-1.421,1.91-2.805,0.654-4.291l-0.18-0.195c-0.589-0.328-1.146-0.596-1.701-0.447c-0.796,0.215-1.297,1.037-2.062,1.4
				c-0.481,0.231-1.28-0.006-1.883,0.086c-3.216,0.498-6.014,2.621-8.818,5.687l-0.575,0.732
				C367.539,203.291,366.129,207.156,366.678,210.28z M367.788,212.655c0.49,0.379,0.938,0.632,1.458,0.856
				c0.046,1.202-1.15,1.73-1.925,1.036C366.766,214.048,367.002,213.068,367.788,212.655z M383.657,192.591
				c0.963-0.24,1.385,0.44,1.352,1.123c-0.032,0.685-0.509,1.377-1.398,1.208c-0.18-0.34-0.505-0.681-0.857-1.021
				C382.904,193.464,383.113,193.025,383.657,192.591z"/>
		</g>
		<g>
			<path fill-rule="evenodd" clip-rule="evenodd" fill="#FFFFFF" d="M365.272,202.789l-0.71,0.82
				c-1.313,1.089-2.617,1.837-4.148,1.878c-0.321,0.007-0.714-0.049-1.108-0.098c-0.382-0.047-0.784,0.001-1.109-0.031
				c-0.228-0.025-1.005-0.135-1.137-0.233c-0.125-0.09-0.168-0.354-0.218-0.456c-0.343-0.698-0.591-1.442-0.753-2.014
				c-0.225-0.782-0.385-1.813-0.231-2.652c0.145-0.753,0.584-1.671,1.14-2.422c0.964-1.309,2.415-2.499,3.702-2.927
				c0.793-0.266,1.993-0.319,2.704-0.084c0.255,0.083,0.493,0.289,0.784,0.372c0.653,0.183,1.337-0.244,2.103,0.149
				c0.171,0.402,0.022,0.811,0.028,1.25c0.007,0.744,0.328,1.448,0.397,2.166C366.831,199.76,366.273,201.431,365.272,202.789z"/>
		</g>
		<g>
			<path fill-rule="evenodd" clip-rule="evenodd" fill="#FFFFFF" d="M344.699,217.638c-0.132-0.168-0.349-0.234-0.483-0.367
				c-0.032-0.03-0.028-0.074-0.05-0.105c-0.057-0.085-0.138-0.129-0.194-0.194c-0.082-0.284-0.358-0.525-0.437-0.811
				c-0.04-0.039-0.073-0.041-0.112-0.063c0.033-0.053,0.01-0.094,0.023-0.145c-0.138-0.133-0.064-0.314-0.218-0.446
				c0.076-0.144-0.122-0.23-0.045-0.373c-0.077-0.064-0.038-0.107-0.055-0.207c-0.022-0.099-0.011-0.2-0.031-0.309
				c-0.013-0.08-0.054-0.146-0.057-0.208c-0.002-0.104,0.062-0.221-0.002-0.312c0.036-0.129,0.016-0.243,0.064-0.372
				c-0.064-0.024-0.011-0.078-0.047-0.108c0.073-0.172,0.067-0.324,0.073-0.48c0.095-0.159,0.072-0.293,0.104-0.438
				c-0.006-0.049-0.075-0.062-0.111-0.086c-0.039-0.027,0.04-0.082-0.019-0.105c-0.238-0.204-0.488-0.404-0.683-0.619
				c0.038-0.109-0.071-0.189-0.106-0.286c0.015-0.176-0.082-0.328-0.106-0.496c0.058-0.121,0.048-0.277,0.106-0.43
				c0.011-0.033,0.043-0.076,0.054-0.111c0.021-0.074,0.011-0.16,0.047-0.23c0.058-0.107,0.195-0.233,0.223-0.301
				c0.022-0.057,0-0.115,0.022-0.173c0.025-0.077,0.138-0.307,0.181-0.356c0.053-0.057,0.132-0.087,0.194-0.135
				c0.034,0.088,0.115,0.078,0.158,0.15c0.054,0.08,0,0.221,0.081,0.291c-0.085,0.053-0.071,0.149-0.049,0.209
				c0.052,0.05,0.092-0.118,0.167-0.041c-0.062,0.212-0.05,0.413-0.044,0.613c-0.024,0.047-0.051,0.035-0.074,0.075
				c0.09,0.153,0.063,0.304,0.263,0.417c-0.043,0.082-0.051,0.162-0.094,0.246c0.072,0.034,0.145,0.022,0.212-0.001
				c0.03-0.143,0.09-0.231,0.167-0.397c0.063-0.136,0.05-0.274,0.234-0.439c-0.026-0.236,0.263-0.494,0.466-0.805
				c0.049-0.079,0.078-0.171,0.128-0.24c0.155-0.21,0.394-0.46,0.594-0.644c0.102-0.095,0.214-0.206,0.296-0.276
				c0.045-0.035,0.101-0.029,0.155-0.064c0.205-0.125,0.372-0.349,0.548-0.371c0.039-0.059,0.043-0.061,0.097-0.111
				c0.094-0.019,0.188-0.069,0.281-0.168c0.025,0.048,0.052,0,0.075,0.027c0.127-0.094,0.253-0.093,0.379-0.2
				c0.029-0.006,0.058,0.018,0.086,0.015c0.291-0.156,0.581-0.201,0.873-0.312c0.13,0.048,0.258-0.102,0.387-0.011
				c0.222-0.112,0.521-0.085,0.762-0.083c0.173,0.002,0.347,0.02,0.504,0.058c0.037-0.003,0.069-0.034,0.105-0.041
				c0.285,0.175,0.616-0.01,0.868,0.273c0.152-0.042,0.314,0.109,0.498,0.181c0.133,0.05,0.27,0.101,0.353,0.204
				c0.495,0.212,0.988,0.792,1.368,1.205c0.006,0.042,0.021,0.08,0.031,0.12c0.249,0.182,0.238,0.461,0.417,0.678
				c-0.039,0.135,0.106,0.289,0.179,0.383c-0.096,0.068,0.013,0.133,0.028,0.141c-0.019,0.012-0.038-0.019-0.056,0.024
				c0.094,0.212,0.18,0.424,0.146,0.649c0.086,0.079,0.036,0.167,0.112,0.247c-0.022,0.028,0.004,0.054-0.045,0.088
				c0.042,0.056,0.016,0.116,0.052,0.175c-0.068,0.166-0.017,0.322-0.01,0.483c-0.069,0.163,0.01,0.312-0.039,0.473l0.096,0.084
				c-0.028-0.002-0.083,0.01-0.083,0.056c0.027,0.113,0.026,0.32,0.13,0.364c-0.162,0.082-0.005,0.33-0.184,0.47
				c0.041,0.061,0.03,0.128,0.061,0.192c-0.107,0.178-0.089,0.346-0.251,0.533c0.021,0.092-0.091,0.218-0.194,0.348
				c-0.003-0.013-0.011-0.088-0.046-0.041c-0.159,0.473-0.418,0.918-0.722,1.395l-0.575,0.715c-0.402,0.478-0.834,0.783-1.246,1.042
				c-0.079,0.05-0.145,0.125-0.198,0.153c-0.057,0.029-0.141,0.016-0.185,0.046c-0.027,0.02-0.031,0.062-0.058,0.075
				c-0.058,0.03-0.149,0.046-0.218,0.074c-0.071,0.033-0.133,0.089-0.201,0.118c-0.019,0.007-0.071-0.003-0.104,0.006
				c-0.088,0.032-0.202,0.089-0.297,0.116c-0.105,0.029-0.198,0.021-0.302,0.08c-0.047,0.029-0.044,0.102-0.054,0.095
				c-0.038-0.017,0.016-0.047-0.037-0.062c-0.216,0.006-0.418,0.135-0.639,0.103c-0.033-0.005-0.053,0.084-0.085,0.073
				c-0.125-0.031-0.243-0.019-0.363-0.01c-0.036,0.031-0.001,0.1-0.062,0.105c-0.036-0.081-0.112-0.033-0.173-0.092
				c-0.26,0.014-0.518-0.023-0.797-0.07c-0.05-0.007-0.119,0.008-0.163,0.003c-0.05-0.006-0.109-0.046-0.167-0.055
				c-0.06-0.008-0.117-0.004-0.162-0.017c-0.16-0.039-0.281-0.141-0.434-0.105c-0.311-0.107-0.603-0.299-0.923-0.489
				L344.699,217.638z"/>
		</g>
		<g>
			<path fill-rule="evenodd" clip-rule="evenodd" fill="#FFFFFF" d="M361.649,242.168c-0.371,0.25-0.743,0.502-1.109,0.758
				c-2.007,0.878-3.982,1.408-6.2,0.941c-0.461-0.098-1.019-0.309-1.578-0.506c-0.537-0.193-1.123-0.269-1.583-0.424
				c-0.324-0.112-1.408-0.535-1.582-0.717c-0.157-0.166-0.173-0.541-0.227-0.696c-0.362-1.07-0.566-2.184-0.675-3.035
				c-0.153-1.157-0.149-2.654,0.261-3.745c0.366-0.98,1.188-2.051,2.121-2.825c1.621-1.357,3.847-2.269,5.654-2.211
				c1.115,0.029,2.716,0.549,3.613,1.196c0.326,0.232,0.598,0.613,0.97,0.86c0.84,0.546,1.832,0.328,2.791,1.192
				c0.161,0.595-0.105,1.039-0.167,1.59c-0.104,0.944,0.237,1.97,0.238,2.892C364.176,239.045,363.222,240.856,361.649,242.168z"/>
		</g>
		<g>
			<path fill-rule="evenodd" clip-rule="evenodd" fill="#FFFFFF" d="M313.911,258.116c0.614-0.081,0.594,0.392,0.778,0.683
				c0.534-2.512,1.519-4.146,2.768-5.171c1.25-1.027,2.772-1.45,4.459-1.575c0.587-0.482,1.184-0.944,1.938-1.09
				c1.002-0.597,1.5-1.754,1.984-2.915c0.481-1.164,0.956-2.335,1.853-2.917c0.673-3.177,1.753-6.175,1.826-9.086
				c-0.887-1.191-1.378-3.623,0.535-5.129c0.773,0.624,2.284,0.93,3.444,1.644c-0.063,1.255,0.763,2.128,1.11,3.199
				c1.53,0.158,3.049,0.613,3.622,1.962c-0.47,0.456-0.414,0.333-0.432,0.988c0.36,0.056,0.703,0.065,1.138,0.328
				c0.127,0.438,0.105,0.487-0.298,0.699c0.274,0.775,1.051,0.889,1.755,0.746l-0.172,0.413c0.335,0.086,0.641,0.104,0.849-0.126
				c0.042,0.66,0.643,1.088,1.284,1.492c0.281,1,0.613,1.979,1.245,2.82c-0.822,2.473,2.107,3.282,4.691,4.233
				c0.665,0.263,0.746-0.553,1.372-0.346c0.131,0.227-0.02,0.648-0.268,0.738c0.307,0.511,1.11,0.814,1.045,1.467
				c-0.646,0.191-0.609-0.602-1.123-0.8c-0.276,1.219,0.266,2.656-0.432,4.235c-0.143-0.647-0.521-1.186-0.848-1.757
				c0.164-0.888,0.672-1.292,0.651-2c-0.826-1.047-2.96-1.447-4.502-2.26c-1.038,0.413-1.728,1.503-2.595,2.251
				c1.146,1.098,2.75,2.426,4.16,2.986c0.572-0.139,1.044-0.435,1.367-0.984c0.56,0.636-0.387,0.665-0.521,1.23
				c0.037,0.642,0.802,0.923,1.121,1.418c-0.047,0.344-0.31,0.36-0.669,0.222c-0.347,1.056-0.036,2.37-0.317,3.038
				c-0.346,0.002-0.499-0.922-1.162-0.818c0.816-1.619,0.398-2.544-0.458-3.285c-0.852-0.737-2.139-1.263-2.987-2.022
				c-1.121,0.355-1.957,1.231-2.844,2.013c-1.391,0.009-2.375,0.725-3.34,1.481c-0.967,0.753-1.913,1.547-3.284,1.682
				c-2.834,1.57-5.162,3.38-8.373,3.279c-1.196-0.038-2.311-0.676-3.569-0.924c-1.693-0.335-2.019,1.605-3.316,1.225
				c-0.15,0.538,0.174,0.649-0.027,1.233c-0.787-0.467-0.74-0.573-1.841-0.613c-0.085-0.332-0.34-0.508-0.135-1.103
				c-0.532-0.147-0.486,0.663-1.095,0.382C313.961,260.507,312.791,258.812,313.911,258.116z"/>
		</g>
		<g>
			<path fill-rule="evenodd" clip-rule="evenodd" fill="#FFFFFF" d="M320.555,292.616c0.337,0.195,0.734,0.266,0.913,0.494
				c0.419,0.526,0.501,1.226,0.946,1.589c0.612,0.505,1.836,0.18,2.209-0.803c0.281-0.726-0.116-1.681,0.032-2.529
				c0.929-0.84,2.184-1.419,2.854-2.367c1.271-1.82,1.118-5.442,0.236-8.552c-0.479-1.655-1.149-3.319-1.984-4.665
				c-0.836-1.342-1.843-2.363-3.031-2.667c-1.105-0.281-2.161,0.058-3.367-0.036c-0.661-1.067-1.016-2.656-2.426-2.368l-0.191,0.052
				c-0.433,0.291-0.813,0.586-0.934,1.056c-0.172,0.676,0.147,1.401,0.079,2.118c-0.043,0.451-0.5,0.927-0.673,1.406
				c-0.941,2.544-0.725,5.482,0.043,8.906l0.222,0.75C316.637,288.497,318.419,291.397,320.555,292.616z M322.464,293.066
				c0.43-0.144,0.771-0.332,1.117-0.58c0.757,0.595,0.593,1.725-0.149,1.902C322.9,294.511,322.395,293.835,322.464,293.066z
				 M316.365,271.999c0.444-1.614,2.332-0.095,1.437,1.055c-0.281-0.018-0.618,0.072-0.964,0.184
				C316.621,272.933,316.426,272.587,316.365,271.999z"/>
		</g>
		<g>
			<path fill-rule="evenodd" clip-rule="evenodd" fill="#FFFFFF" d="M350.108,202.363l0.555,0.141
				c0.725-1.107,1.773-2.086,2.515-3.401c0.772-1.369,1.718-3.154,2.314-4.69c0.37-0.212,0.852-0.104,1.226-0.309
				c-0.362-0.449,0.388-0.641,0.396-0.922c-0.4-0.263-0.891-0.134-1.086-0.244c0.375-0.962,0.715-2.154,1.108-3.238
				c0.486-0.247,0.935-0.61,1.366-1.056c-0.037-0.401-0.555-0.601-0.881-0.878c0.151-0.524,0.362-1.074,0.781-1.703
				c1.098-0.778,2.317-1.078,3.329-2.269c-1.72,0.412-3.813-0.632-4.418-1.797c-0.603,1.737,0.539,3.014-1.14,4.96
				c-0.816-0.302-0.61,0.708-0.896,1.261c-0.234,0.457-0.898,1.079-1.338,1.661c-0.5,0.663-0.969,1.272-1.275,1.886
				c-0.592,0.279-1.255,0.356-1.788,0.803c0.083,0.613,0.285,1.165,0.366,1.778C349.851,197.509,349.529,200.208,350.108,202.363z"
				/>
		</g>
		<g>
			<path fill-rule="evenodd" clip-rule="evenodd" fill="#FFFFFF" d="M338.435,223.145c-0.691-1.6-1.106-3.302-1.301-5.074
				c0.818-0.114,1.715,0.422,2.483-0.001c-0.184-0.286-0.141-0.502,0.238-0.739c-0.404-0.113-1.417,0.366-1.381-0.486
				c0.422-0.425,0.938-0.005,1.338-0.602c0.033-0.77-0.498-1.339,0.141-1.897c-0.402-0.276-0.998-0.456-1.608-0.369
				c0.072-0.371,0.534-0.657,0.731-1.204c-0.389-0.218-0.287-0.557-0.475-0.825c-1.035,0.271-1.714,0.046-2.639-0.629
				c-0.578,0.878,0.515,1.311,0.245,2.101c-0.324,0.636-0.804,0.598-0.901,1.119c-0.393,0.003-0.8-0.168-1.196-0.177
				c0.446,1.09,0.383,2.33,0.735,3.439c-0.3,0.275-0.649,0.197-0.945,0.47c-0.043,0.739-0.356,1.532-1.074,2.37
				c1.012,0.389,1.615-1.843,2.542-2.046c0.813,1.685,1.308,3.449,1.781,5.208c-0.121,0.367-0.376,0.052-0.5,0.42
				c-0.201,2.384,1.574,4.99,2.562,7.29c0.699,1.616,1.583,2.843,2.62,4.744c0.703,1.287,1.205,2.757,2.429,3.54
				c0.365,0.542,0.819,1.051,1.061,1.631c0.104-0.005-0.256-1.181-0.619-1.548c-0.221-2.162-0.927-4.173-1.72-6.196
				c-0.79-2.021-1.666-4.051-2.176-6.217c-0.354-1.504-0.244-3.195-1.472-4.335C338.997,222.922,338.741,223.168,338.435,223.145z"
				/>
		</g>
	</g>
	<g>
		<g>
			<path fill-rule="evenodd" clip-rule="evenodd" fill="#FFFFFF" d="M402.461,190.434c0.091,0.312,0.452,0.483,0.425,0.799
				c0.306,0.25,0.718,0.427,1.133,0.437c-0.039-0.405,0.421-0.612,0.772-0.75c0.33,0.161,0.751,0.24,0.88,0.594
				c-0.242-0.024-0.411,0.039-0.567,0.114c0.091,0.198,0.481,0.11,0.65,0.234c0.271,0.207,0.432,0.512,0.871,0.554
				c0.242,0.396,0.582,0.559,0.846,0.905c0.951,1.262,0.883,3.242,1.543,4.767c-0.022,0.224,0.078,0.335,0.072,0.547
				c1.351,0.332,2.144,0.377,3.429,0.355c0.093-0.772,0.062-1.951,0.496-2.09c0.195-0.13-0.195-0.248-0.063-0.307
				c0.214-2.208,1.129-3.531,2.586-4.072c0.155,0.093-0.004,0.161,0.054,0.307c0.202-0.149,0.45-0.222,0.493-0.607
				c0.159-0.02,0.502-0.069,0.6,0.016c0.161,0.503,0.782,0.71,1.2,0.897c0.645-0.649,1.296-1.271,1.634-2.3
				c-0.26-0.735-0.163-1.353-0.646-1.905c0.086-0.662-0.44-0.903-0.781-1.271c-0.667-0.072-0.757-0.797-0.733-1.351
				c-0.122-0.324-0.379-0.557-0.372-0.974c-0.433-0.506-1.128-0.83-1.681-1.252c-0.332,0.208-0.42-0.08-0.777-0.175
				c-0.112-0.237-0.291-0.424-0.398-0.663c-0.644-0.35-1.261-0.848-2.042-0.985c-0.37-0.065-0.821,0.009-1.18,0.005
				c-0.608,0.347-1.404,0.198-1.779,0.76c-0.669,0.029-1.117,0.265-1.809,0.288c-0.157,0.093-0.2,0.315-0.483,0.263
				c-0.529,1.054-1.774,1.281-2.607,1.979c-0.05,0.357-0.319,0.465-0.344,0.925c-0.124,0.125-0.171,0.332-0.365,0.381
				c0.03,0.299,0.039,0.361-0.024,0.692c-0.395,0.437-0.483,1.043-0.678,1.558c-0.162,0.06-0.302,0.266-0.395,0.533l0.003,0.049
				C402.58,189.961,402.395,190.197,402.461,190.434z M413.663,191.157c0.14,0.022,0.034,0.242,0.105,0.318
				c-0.27,0.359-0.546,0.703-1.013,0.785C412.94,191.736,413.245,191.371,413.663,191.157z M408.73,190.676
				c0.129,0.439,0.249,1.051,0.043,1.535c-0.563-0.294-0.778-0.905-1.037-1.479C407.961,190.534,408.428,190.487,408.73,190.676z"/>
		</g>
		<g>
			<path fill-rule="evenodd" clip-rule="evenodd" fill="#FFFFFF" d="M396.42,196.628c0.026-0.777-0.63-1.528-0.685-2.219
				c-0.129-1.613,1.341-3.323,2.052-4.541c0.859-1.488,1.703-2.588,2.673-4.008c0.223-0.393,0.547-0.017,0.796-0.377
				c1.498-2.343,3.251-4.346,5.301-6.649c0.397-0.456,1.799-1.558,1.781-2.051c-0.023-0.52-0.717-1.068-1.492-1.006
				c-0.663,0.047-1.55,1.564-1.982,2.05c-1.884,2.1-3.841,4.614-5.355,6.46c-0.09,0.304-0.066,0.632-0.199,0.91
				c-0.66,1.33-1.918,2.726-2.767,4.129c-0.898,1.474-1.511,3.015-2.394,4.292c-1.321-0.26-2.98,0.396-4.059,1.51
				c-1.084,1.116-1.568,2.664-0.717,4.132c0.372,0.657,1.007,1.014,1.891,1.137l0.511-0.003
				C393.857,199.87,396.334,199.059,396.42,196.628z M407.854,176.698c-0.276,0.63-1.154,1.242-1.773,0.648
				C406.177,176.299,407.211,176,407.854,176.698z"/>
		</g>
		<g>
			<path fill-rule="evenodd" clip-rule="evenodd" fill="#FFFFFF" d="M455.667,185.995c0.206-0.024,0.491,0.109,0.667,0.036
				c2.706,0.925,5.748,1.669,8.545,2.549c0.078-0.044,0.113-0.187,0.219-0.164c-0.047-0.304,0.279-0.845,0.673-0.697
				c0.313,0.12,0.414,0.681,0.062,0.903c0.023,0.164,0.061,0.318,0.176,0.444c-0.09-0.003-0.008,0.137-0.093,0.215
				c-0.075,0.131-0.313-0.138-0.399-0.025c-0.182,0.51-0.352,1.054-0.593,1.535c0.251,0.153,0.53,0.146,0.703,0.307l-0.095,0.217
				c-0.102,0.11-0.301-0.037-0.467-0.098l-0.107,0.249c1.322,0.552,2.169,1.313,1.7,2.543c1.003,0.3,1.153,0.941,1.476,1.649
				c0.152,0.339,0.468,0.705,0.168,1.026c-0.354-0.012-0.71-0.331-1.189-0.482c-0.648,1.285-1.332,2.805-2.087,4.21
				c-0.356,0.664-0.804,1.419-1.009,2.083c-0.191,0.62,0.068,1.455-0.271,2.076c-0.621-0.059-1.545-0.613-2.363-0.991
				c-1.896-0.882-4.261-1.733-6.104-2.56c0.268-0.728,0.719-1.506,1.093-2.171c0.128-0.022,0.277,0.019,0.44,0.093
				c0.811-1.854,1.637-4.198,2.386-6.13c-0.386-0.164-0.663-0.217-0.897-0.44c0.094-0.472,0.497-0.837,0.766-1.256
				c0.554-0.149,1.213,0.212,1.679,0.456c0.13-0.082,0.044-0.321,0.188-0.396c0.157-0.164,0.378-0.193,0.663-0.062
				c0.656-0.378,1.549-0.203,2.435-0.014c0.258-0.318-0.362-0.278-0.331-0.503c0.107-0.303,0.459-0.011,0.689,0
				c0.173-0.465,0.387-0.947,0.553-1.551c-3.357-1.113-7.043-2.184-10.559-3.017c-0.002-0.27-0.273-0.449-0.246-0.599
				c0.048-0.276,0.328-0.356,0.402-0.513c0.316-0.713-0.519-0.906-0.498-1.507c0.025-0.867,0.9-0.667,1.459-0.763
				c0.18-0.03,0.217,0.097,0.383,0.188c0.509,0.27,1.16,0.441,0.854,1.14c-0.201,0.455-0.785,0.361-0.99,0.851
				C455.529,185.341,456.111,185.55,455.667,185.995z"/>
		</g>
		<g>
			<path fill-rule="evenodd" clip-rule="evenodd" fill="#FFFFFF" d="M474.377,197.827c-0.439,0.231-0.821,0.617-1.17,0.654
				c-0.801,0.086-1.494-0.316-2.176-0.079c-0.932,0.326-1.585,1.916-1.008,3.026c0.422,0.818,1.574,1.048,2.203,1.804
				c-0.004,1.615-0.508,3.404-0.238,4.795c0.26,1.33,1.189,2.564,2.457,3.627c1.276,1.06,2.896,1.956,4.592,2.565
				c1.803,0.647,3.793,1.12,5.674,1.212c1.883,0.089,3.666-0.205,4.996-1.2c1.239-0.924,1.894-2.255,3.058-3.424
				c1.532,0.115,3.263,0.955,4.288-0.699l0.127-0.232c0.132-0.662,0.214-1.273-0.099-1.757c-0.45-0.691-1.386-0.915-1.97-1.53
				c-0.366-0.387-0.389-1.22-0.662-1.767c-1.459-2.905-4.34-4.918-8.116-6.646l-0.874-0.32
				C481.289,196.494,477.178,196.341,474.377,197.827z M472.461,199.614c-0.211,0.582-0.314,1.083-0.368,1.647
				c-1.124,0.417-1.993-0.556-1.572-1.509C470.824,199.071,471.826,198.993,472.461,199.614z M496.424,208.549
				c0.523,0.841,0.009,1.453-0.652,1.633c-0.662,0.178-1.465-0.059-1.581-0.959c0.27-0.274,0.492-0.687,0.704-1.13
				C495.357,208.101,495.843,208.169,496.424,208.549z"/>
		</g>
		<g>
			<path fill-rule="evenodd" clip-rule="evenodd" fill="#FFFFFF" d="M481.07,194.186l-0.998-0.426
				c-1.441-0.916-2.552-1.922-3.062-3.369c-0.109-0.305-0.175-0.696-0.25-1.085c-0.074-0.377-0.246-0.747-0.315-1.066
				c-0.047-0.225-0.181-0.996-0.128-1.152c0.047-0.145,0.284-0.267,0.365-0.347c0.559-0.542,1.191-1.008,1.684-1.338
				c0.677-0.454,1.609-0.925,2.457-1.033c0.761-0.099,1.771,0.039,2.656,0.337c1.547,0.517,3.124,1.535,3.932,2.628
				c0.494,0.672,0.914,1.799,0.909,2.549c0,0.268-0.124,0.557-0.112,0.857c0.023,0.68,0.642,1.199,0.504,2.049
				c-0.33,0.285-0.766,0.271-1.182,0.409c-0.706,0.236-1.277,0.758-1.941,1.043C484.434,194.736,482.67,194.719,481.07,194.186z"/>
		</g>
		<g>
			<path fill-rule="evenodd" clip-rule="evenodd" fill="#FFFFFF" d="M460.576,179.213c0.12-0.178,0.112-0.405,0.199-0.574
				c0.018-0.038,0.061-0.051,0.082-0.082c0.065-0.08,0.083-0.168,0.125-0.242c0.246-0.167,0.387-0.503,0.634-0.666
				c0.025-0.053,0.019-0.084,0.027-0.129c0.062,0.012,0.091-0.02,0.144-0.022c0.084-0.172,0.277-0.159,0.355-0.344
				c0.16,0.027,0.183-0.188,0.342-0.161c0.035-0.093,0.09-0.07,0.18-0.117c0.086-0.05,0.188-0.072,0.285-0.125
				c0.071-0.036,0.118-0.096,0.178-0.116c0.1-0.037,0.23-0.01,0.297-0.104c0.132-0.003,0.234-0.058,0.371-0.051
				c0.006-0.071,0.072-0.034,0.09-0.079c0.186,0.015,0.328-0.037,0.48-0.081c0.178,0.043,0.299-0.021,0.447-0.036
				c0.047-0.023,0.037-0.092,0.047-0.133c0.016-0.047,0.091,0.014,0.098-0.051c0.117-0.288,0.23-0.589,0.371-0.84
				c0.118,0,0.161-0.126,0.24-0.189c0.172-0.043,0.288-0.179,0.439-0.256c0.133,0.017,0.277-0.042,0.445-0.032
				c0.031,0,0.082,0.017,0.117,0.016c0.079-0.001,0.156-0.04,0.234-0.027c0.121,0.021,0.281,0.113,0.357,0.119
				c0.061,0.002,0.109-0.035,0.173-0.035c0.079,0,0.335,0.041,0.392,0.064c0.07,0.031,0.125,0.096,0.188,0.141
				c-0.07,0.06-0.035,0.134-0.089,0.2c-0.062,0.074-0.212,0.068-0.256,0.167c-0.073-0.065-0.159-0.023-0.213,0.016
				c-0.028,0.067,0.14,0.049,0.091,0.144c-0.221,0.012-0.408,0.082-0.596,0.151c-0.055-0.006-0.049-0.038-0.094-0.048
				c-0.12,0.134-0.271,0.154-0.315,0.38c-0.094-0.017-0.169,0-0.261-0.014c-0.011,0.081,0.021,0.144,0.066,0.203
				c0.143-0.017,0.248,0.014,0.429,0.034c0.146,0.017,0.276-0.037,0.488,0.086c0.218-0.1,0.554,0.099,0.913,0.192
				c0.09,0.024,0.187,0.02,0.269,0.047c0.247,0.083,0.558,0.232,0.794,0.368c0.126,0.067,0.262,0.136,0.355,0.196
				c0.048,0.032,0.059,0.084,0.109,0.127c0.184,0.154,0.447,0.244,0.522,0.407c0.068,0.021,0.072,0.022,0.138,0.055
				c0.047,0.084,0.125,0.157,0.248,0.215c-0.04,0.039,0.014,0.049-0.003,0.082c0.127,0.092,0.165,0.211,0.31,0.296
				c0.016,0.025,0,0.061,0.011,0.087c0.237,0.228,0.375,0.491,0.57,0.735c-0.008,0.137,0.176,0.213,0.129,0.362
				c0.177,0.177,0.245,0.469,0.319,0.702c0.049,0.164,0.088,0.334,0.1,0.495c0.014,0.033,0.053,0.058,0.072,0.088
				c-0.076,0.321,0.201,0.584,0.01,0.909c0.086,0.133-0.006,0.333-0.018,0.53c-0.008,0.142-0.012,0.291-0.085,0.4
				c-0.049,0.536-0.448,1.182-0.719,1.673c-0.038,0.019-0.073,0.043-0.106,0.067c-0.096,0.291-0.362,0.369-0.518,0.604
				c-0.141,0.006-0.238,0.193-0.31,0.287c-0.09-0.068-0.124,0.055-0.124,0.073c-0.016-0.014,0.008-0.043-0.039-0.045
				c-0.173,0.152-0.349,0.302-0.57,0.339c-0.05,0.106-0.148,0.085-0.199,0.183c-0.035-0.012-0.051,0.021-0.099-0.017
				c-0.039,0.056-0.108,0.052-0.151,0.105c-0.176-0.014-0.312,0.083-0.461,0.137c-0.177-0.014-0.294,0.109-0.461,0.113l-0.053,0.119
				c-0.006-0.028-0.034-0.077-0.078-0.062c-0.1,0.06-0.298,0.121-0.307,0.234c-0.128-0.131-0.314,0.096-0.503-0.025
				c-0.044,0.053-0.113,0.062-0.164,0.112c-0.203-0.045-0.356,0.024-0.583-0.073c-0.082,0.049-0.236-0.02-0.394-0.076
				c0.015-0.006,0.083-0.037,0.026-0.059c-0.502-0.004-1.004-0.11-1.553-0.25l-0.856-0.324c-0.579-0.236-1.005-0.55-1.378-0.86
				c-0.072-0.061-0.164-0.1-0.207-0.143c-0.047-0.043-0.059-0.126-0.102-0.159c-0.028-0.021-0.07-0.012-0.09-0.033
				c-0.047-0.044-0.086-0.128-0.137-0.183c-0.053-0.06-0.125-0.1-0.175-0.156c-0.013-0.013-0.018-0.068-0.04-0.096
				c-0.056-0.076-0.147-0.165-0.201-0.246c-0.061-0.09-0.082-0.179-0.168-0.262c-0.043-0.035-0.109-0.011-0.108-0.023
				c0.004-0.042,0.051,0,0.048-0.054c-0.074-0.203-0.258-0.355-0.298-0.575c-0.003-0.031-0.093-0.025-0.097-0.059
				c-0.006-0.126-0.056-0.237-0.1-0.348c-0.042-0.023-0.098,0.029-0.123-0.025c0.066-0.061-0.002-0.118,0.035-0.194
				c-0.094-0.244-0.14-0.5-0.184-0.78c-0.007-0.048-0.043-0.11-0.051-0.152c-0.01-0.051,0.008-0.12-0.004-0.177
				c-0.01-0.057-0.031-0.111-0.035-0.161c-0.01-0.163,0.051-0.309-0.031-0.444c0.008-0.328,0.098-0.667,0.18-1.027L460.576,179.213z
				"/>
		</g>
		<g>
			<path fill-rule="evenodd" clip-rule="evenodd" fill="#FFFFFF" d="M442.516,202.943c-0.354-0.277-0.71-0.549-1.066-0.818
				c-1.467-1.638-2.581-3.354-2.826-5.605c-0.051-0.47-0.022-1.064-0.008-1.658c0.016-0.569-0.094-1.151-0.086-1.634
				c0.005-0.344,0.071-1.507,0.189-1.729c0.109-0.201,0.463-0.333,0.592-0.43c0.906-0.677,1.908-1.217,2.682-1.583
				c1.053-0.504,2.479-0.964,3.643-0.912c1.048,0.043,2.319,0.493,3.347,1.138c1.796,1.121,3.356,2.955,3.86,4.688
				c0.32,1.069,0.324,2.751-0.012,3.807c-0.121,0.379-0.396,0.76-0.515,1.191c-0.259,0.969,0.257,1.842-0.269,3.021
				c-0.512,0.339-1.018,0.225-1.562,0.336c-0.93,0.198-1.798,0.837-2.676,1.126C446.278,204.379,444.256,204.033,442.516,202.943z"
				/>
		</g>
		<g>
			<path fill-rule="evenodd" clip-rule="evenodd" fill="#FFFFFF" d="M412.599,162.447c0.264,0.56-0.19,0.686-0.412,0.95
				c2.554-0.264,4.412,0.171,5.772,1.043c1.361,0.875,2.23,2.192,2.867,3.759c0.638,0.41,1.263,0.836,1.63,1.509
				c0.879,0.771,2.129,0.887,3.386,0.989c1.251,0.102,2.509,0.191,3.341,0.865c3.226-0.338,6.41-0.235,9.197-1.069
				c0.858-1.211,3.016-2.431,5.037-1.079c-0.354,0.928-0.178,2.459-0.496,3.786c-1.211,0.327-1.787,1.383-2.695,2.043
				c0.321,1.504,0.361,3.091-0.745,4.055c-0.581-0.309-0.446-0.296-1.074-0.106c0.06,0.359,0.157,0.687,0.043,1.183
				c-0.381,0.256-0.433,0.249-0.76-0.069c-0.652,0.499-0.521,1.273-0.166,1.9l-0.445-0.037c0.02,0.345,0.099,0.643,0.381,0.769
				c-0.614,0.243-0.833,0.948-1.021,1.683c-0.866,0.58-1.695,1.195-2.301,2.053c-2.607-0.018-2.473,3.02-2.582,5.771
				c-0.043,0.709,0.759,0.537,0.755,1.199c-0.177,0.194-0.626,0.18-0.789-0.026c-0.391,0.447-0.429,1.304-1.07,1.445
				c-0.384-0.556,0.386-0.767,0.413-1.315c-1.244,0.113-2.447,1.07-4.167,0.896c0.569-0.338,0.968-0.863,1.411-1.348
				c0.897-0.121,1.438,0.239,2.105,0.002c0.746-1.111,0.467-3.264,0.764-4.98c-0.714-0.861-1.965-1.182-2.944-1.776
				c-0.689,1.429-1.464,3.366-1.562,4.878c0.31,0.5,0.734,0.862,1.36,0.998c-0.435,0.729-0.751-0.163-1.335-0.117
				c-0.596,0.234-0.631,1.048-1.002,1.505c-0.343,0.059-0.44-0.184-0.422-0.571c-1.109-0.003-2.268,0.694-2.99,0.636
				c-0.11-0.329,0.727-0.762,0.424-1.359c1.793,0.28,2.545-0.405,2.987-1.447c0.438-1.038,0.541-2.424,1.003-3.465
				c-0.683-0.958-1.772-1.483-2.791-2.083c-0.437-1.322-1.422-2.037-2.439-2.723c-1.012-0.688-2.057-1.346-2.609-2.608
				c-2.364-2.213-4.805-3.873-5.695-6.958c-0.333-1.152-0.068-2.408-0.22-3.679c-0.202-1.717-2.148-1.432-2.184-2.778
				c-0.558,0.019-0.566,0.363-1.183,0.351c0.204-0.894,0.317-0.879,0.018-1.941c0.292-0.182,0.378-0.481,1.005-0.468
				c-0.021-0.549-0.776-0.259-0.698-0.924C410.339,163.23,411.595,161.596,412.599,162.447z"/>
		</g>
		<g>
			<path fill-rule="evenodd" clip-rule="evenodd" fill="#FFFFFF" d="M381.798,179.414c-0.083,0.379-0.025,0.778-0.188,1.018
				c-0.371,0.562-1.008,0.857-1.218,1.394c-0.292,0.742,0.397,1.801,1.449,1.852c0.778,0.04,1.562-0.633,2.413-0.755
				c1.086,0.622,2.027,1.639,3.14,1.982c2.121,0.645,5.52-0.62,8.207-2.419c1.425-0.967,2.804-2.117,3.827-3.326
				c1.02-1.209,1.683-2.483,1.605-3.708c-0.07-1.136-0.719-2.037-1-3.211c0.811-0.959,2.214-1.789,1.506-3.041l-0.109-0.165
				c-0.41-0.321-0.807-0.592-1.292-0.562c-0.695,0.043-1.286,0.572-1.991,0.728c-0.445,0.099-1.04-0.19-1.546-0.21
				c-2.714-0.108-5.445,1.004-8.472,2.795l-0.646,0.443C384.508,174.409,382.294,177.003,381.798,179.414z M381.96,181.367
				c0.273,0.365,0.551,0.629,0.899,0.882c-0.333,0.903-1.458,1.1-1.858,0.447C380.716,182.23,381.207,181.54,381.96,181.367z
				 M400.137,169.053c1.673-0.075,0.81,2.191-0.562,1.693c-0.069-0.273-0.26-0.567-0.468-0.863
				C399.328,169.585,399.599,169.293,400.137,169.053z"/>
		</g>
		<g>
			<path fill-rule="evenodd" clip-rule="evenodd" fill="#FFFFFF" d="M476.791,179.62l0.037,0.57c1.28,0.351,2.541,1.048,4.024,1.351
				c1.541,0.313,3.538,0.665,5.183,0.762c0.316,0.286,0.363,0.781,0.673,1.072c0.315-0.482,0.731,0.173,0.999,0.096
				c0.129-0.462-0.145-0.89-0.102-1.109c1.035,0.061,2.273,0.022,3.428,0.063c0.386,0.385,0.869,0.703,1.424,0.977
				c0.371-0.158,0.403-0.711,0.566-1.107c0.547-0.017,1.135,0.016,1.861,0.221c1.079,0.81,1.738,1.876,3.184,2.474
				c-0.918-1.511-0.57-3.823,0.354-4.756c-1.838-0.045-2.703,1.436-5.074,0.436c0.035-0.867-0.863-0.367-1.478-0.467
				c-0.511-0.086-1.302-0.525-1.995-0.767c-0.785-0.272-1.512-0.533-2.191-0.637c-0.445-0.475-0.725-1.088-1.316-1.455
				c-0.561,0.265-1.021,0.628-1.582,0.892C481.337,177.88,478.658,178.401,476.791,179.62z"/>
		</g>
		<g>
			<path fill-rule="evenodd" clip-rule="evenodd" fill="#FFFFFF" d="M453.393,174.971c1.31-1.155,2.794-2.079,4.419-2.814
				c0.362,0.742,0.13,1.762,0.773,2.358c0.215-0.264,0.436-0.287,0.776-0.004c-0.018-0.416-0.789-1.229,0.033-1.462
				c0.533,0.271,0.295,0.888,0.986,1.085c0.742-0.209,1.119-0.888,1.846-0.457c0.14-0.469,0.126-1.088-0.15-1.645
				c0.379-0.047,0.793,0.305,1.373,0.322c0.087-0.438,0.439-0.444,0.639-0.708c-0.58-0.899-0.578-1.614-0.225-2.704
				c-1.012-0.275-1.082,0.897-1.92,0.886c-0.703-0.11-0.817-0.577-1.342-0.51c-0.126-0.371-0.092-0.812-0.205-1.189
				c-0.897,0.763-2.094,1.089-3.038,1.768c-0.353-0.2-0.39-0.552-0.739-0.751c-0.718,0.19-1.566,0.139-2.584-0.284
				c-0.058,1.083,2.248,0.964,2.732,1.782c-1.348,1.297-2.869,2.312-4.394,3.31c-0.386-0.001-0.167-0.343-0.556-0.344
				c-2.325,0.549-4.253,3.044-6.131,4.701c-1.319,1.166-2.211,2.383-3.698,3.958c-1.005,1.067-2.249,1.998-2.612,3.408
				c-0.406,0.512-0.749,1.101-1.227,1.511c0.035,0.098,1.043-0.61,1.284-1.066c1.989-0.882,3.683-2.175,5.358-3.555
				c1.676-1.379,3.335-2.84,5.236-3.997c1.318-0.807,2.958-1.223,3.664-2.746C453.783,175.434,453.469,175.267,453.393,174.971z"/>
		</g>
	</g>
</g>

<g>
	<path fill="#FFFFFF" d="M416.127,268.413
		c-2.872,0-5.317-0.73-7.066-2.113c-1.674-1.322-2.636-3.205-2.636-5.174c0-3.449,2.372-5.768,5.902-5.768
		c3.215,0,5.458,1.922,5.458,4.671c0,1.714-0.921,2.8-1.837,3.489c0.054,0.002,0.115,0.004,0.179,0.004
		c1.953,0,2.618-0.697,3.101-1.902c0.765-1.92,0.872-5.271,0.872-8.609c0-19.843-0.052-24.29-0.249-29.365
		c-0.181-0.108-0.613-0.307-1.555-0.487c-0.995-0.194-2.134-0.288-2.968-0.356l-1.218-0.1l-0.312-1.25
		c-0.059-0.236-0.145-0.561-0.145-0.94c0-0.36,0.074-0.731,0.214-1.11l0.431-1.154l1.225,0.046c2.982,0.092,6.154,0.185,9.248,0.185
		c2.928,0,5.957-0.091,9.061-0.185l1.342-0.046l0.383,1.363c0.059,0.201,0.146,0.504,0.146,0.901c0,0.46-0.115,0.89-0.189,1.105
		l-0.348,1.089l-1.137,0.096c-0.83,0.068-1.967,0.162-2.959,0.354c-0.922,0.174-1.361,0.363-1.555,0.469
		c-0.016,1.783-0.029,3.475-0.041,5.422c-0.021,3.156-0.047,6.739-0.109,11.9c-0.107,7.717-0.322,14.492-1.945,19.271
		C425.547,265.733,421.849,268.413,416.127,268.413z"/>
</g>
<g>
	<path fill="#FFFFFF" d="M430.127,274.413
		c-2.871,0-5.316-0.73-7.066-2.113c-1.673-1.322-2.635-3.205-2.635-5.174c0-3.449,2.372-5.768,5.903-5.768
		c3.215,0,5.457,1.922,5.457,4.671c0,1.714-0.92,2.8-1.836,3.489c0.053,0.002,0.115,0.004,0.178,0.004
		c1.953,0,2.619-0.697,3.102-1.902c0.764-1.92,0.871-5.271,0.871-8.609c0-19.843-0.051-24.29-0.248-29.365
		c-0.182-0.108-0.613-0.307-1.555-0.487c-0.996-0.194-2.135-0.288-2.969-0.356l-1.217-0.1l-0.312-1.25
		c-0.059-0.236-0.145-0.561-0.145-0.94c0-0.36,0.074-0.731,0.215-1.11l0.43-1.154l1.225,0.046c2.982,0.092,6.154,0.185,9.248,0.185
		c2.928,0,5.957-0.091,9.061-0.185l1.342-0.046l0.383,1.363c0.059,0.201,0.146,0.504,0.146,0.901c0,0.46-0.115,0.89-0.189,1.105
		l-0.348,1.089l-1.137,0.096c-0.83,0.068-1.967,0.162-2.959,0.354c-0.922,0.174-1.361,0.363-1.555,0.469
		c-0.016,1.783-0.029,3.475-0.041,5.422c-0.021,3.156-0.047,6.739-0.109,11.9c-0.107,7.717-0.322,14.492-1.945,19.271
		C439.547,271.733,435.85,274.413,430.127,274.413z"/>
</g>
</svg>
